<?xml version="1.0" standalone="no"?>
<!DOCTYPE svg PUBLIC "-//W3C//DTD SVG 20010904//EN"
 "http://www.w3.org/TR/2001/REC-SVG-20010904/DTD/svg10.dtd">
<svg version="1.0" xmlns="http://www.w3.org/2000/svg"
 width="500.000000pt" height="500.000000pt" viewBox="0 0 500.000000 500.000000"
 preserveAspectRatio="xMidYMid meet">
<metadata>
Created by potrace 1.14, written by Peter Selinger 2001-2017
</metadata>
<g transform="translate(0.000000,500.000000) scale(0.100000,-0.100000)"
fill="#000000" stroke="none">
<path d="M2081 3907 c-14 -6 -27 -23 -31 -37 -12 -47 -6 -318 7 -331 16 -16
87 -17 106 -1 11 10 15 35 15 106 -1 105 5 132 30 138 9 2 102 4 206 3 228 -1
217 6 215 -138 0 -55 3 -103 8 -108 13 -13 74 -18 101 -8 22 8 22 12 22 168 0
169 -7 205 -44 215 -11 3 -154 6 -316 6 -214 0 -302 -4 -319 -13z"/>
<path d="M3822 3565 c-18 -8 -57 -40 -88 -71 l-55 -57 -172 1 c-143 0 -175 -2
-189 -15 -43 -38 -18 -60 129 -113 65 -24 119 -44 120 -44 1 -1 -14 -33 -33
-71 -38 -75 -48 -83 -109 -84 -64 -2 -86 -11 -83 -33 2 -14 20 -27 59 -42 65
-24 65 -32 6 -85 -23 -20 -48 -43 -57 -51 -8 -8 -46 -39 -83 -68 l-67 -52 0
158 c0 116 4 163 13 176 12 17 14 17 20 3 6 -17 10 -16 104 18 9 3 10 11 3 27
-5 13 -30 84 -56 158 -25 74 -47 136 -48 137 -1 1 -26 -6 -56 -16 -53 -18 -56
-18 -79 0 -37 30 -98 42 -209 44 -63 1 -107 6 -114 13 -16 16 -73 15 -86 0 -8
-10 -107 -13 -434 -12 -507 0 -513 -1 -596 -84 l-54 -54 -3 -501 c-1 -276 -3
-503 -4 -505 -3 -7 -119 60 -139 81 -28 30 -31 85 -7 141 18 43 108 181 125
191 5 3 10 11 10 16 0 31 -171 -121 -215 -192 -100 -157 -6 -313 245 -405 137
-50 362 -66 537 -39 364 56 695 191 953 388 l65 49 -70 -68 c-170 -166 -354
-275 -610 -359 -301 -99 -620 -118 -840 -51 -27 9 -50 16 -50 16 0 0 0 -98 1
-217 0 -170 -2 -210 -10 -181 -6 20 -15 38 -19 39 -4 1 -62 -13 -127 -32 -79
-22 -120 -38 -120 -47 0 -19 120 -425 129 -434 3 -4 61 10 129 30 131 39 132
40 111 100 l-10 30 -77 -24 c-42 -13 -77 -24 -78 -24 -5 -1 -24 82 -20 89 3 4
35 16 71 26 69 18 70 20 55 77 -10 34 -12 36 -38 27 -15 -4 -48 -15 -74 -23
l-47 -14 -10 30 c-18 50 -14 65 17 71 15 3 48 12 73 20 l47 15 28 -56 c30 -59
85 -106 136 -117 16 -4 28 -8 28 -10 0 -2 -13 -40 -30 -85 -16 -45 -30 -83
-30 -85 0 -2 24 5 52 16 29 10 54 19 55 19 1 0 6 -15 13 -34 15 -45 40 -67 88
-73 48 -6 96 16 116 56 8 15 16 56 17 90 1 34 7 69 14 77 9 13 17 0 44 -70 17
-47 35 -86 39 -86 3 0 25 7 48 16 l42 16 -24 61 c-13 34 -23 65 -21 71 4 13
466 14 485 0 11 -8 16 -33 18 -83 2 -52 8 -78 23 -100 55 -76 165 -60 199 29
5 14 10 46 10 72 2 66 14 84 73 103 33 11 69 34 99 64 60 58 70 100 70 284 l0
132 58 0 c84 1 154 53 168 125 6 30 6 30 -35 30 -22 0 -41 -5 -41 -10 0 -6
-11 -22 -25 -35 -27 -28 -76 -33 -94 -11 -10 12 4 23 84 66 l96 52 -24 32
c-13 17 -41 40 -62 50 -31 16 -45 17 -81 9 l-44 -10 0 161 1 161 66 70 c71 75
150 177 202 263 18 28 34 52 36 52 2 0 19 -22 39 -50 20 -27 42 -50 50 -50 19
0 26 33 16 73 -23 91 -25 83 42 146 l62 60 78 -107 c43 -59 83 -109 89 -110 5
-2 21 -1 34 2 35 9 32 34 -24 216 -48 154 -48 155 -29 182 32 46 68 132 68
163 0 40 -25 75 -53 75 -12 -1 -37 -7 -55 -15z m-548 -1359 c17 -6 17 -7 -5
-25 -13 -10 -34 -23 -46 -30 -21 -11 -23 -10 -23 17 0 20 7 32 23 39 12 6 24
10 27 8 3 -1 13 -5 24 -9z"/>
<path d="M1470 3340 l-25 -5 1 -200 c1 -110 2 -232 3 -271 l1 -70 56 1 c30 0
58 6 62 12 4 6 6 130 4 275 l-3 263 -37 0 c-21 0 -49 -2 -62 -5z"/>
<path d="M3518 2455 c-15 -8 -32 -30 -39 -49 -10 -29 -15 -32 -23 -20 -10 13
-17 12 -54 -8 -27 -15 -40 -28 -37 -37 5 -12 133 -230 141 -240 2 -2 63 30 83
45 2 2 -15 35 -38 74 -56 97 -55 131 4 150 32 11 34 14 32 53 -3 48 -23 57
-69 32z"/>
</g>
</svg>
