<?xml version="1.0" standalone="no"?>
<!DOCTYPE svg PUBLIC "-//W3C//DTD SVG 20010904//EN"
 "http://www.w3.org/TR/2001/REC-SVG-20010904/DTD/svg10.dtd">
<svg version="1.0" xmlns="http://www.w3.org/2000/svg"
 width="750.000000pt" height="750.000000pt" viewBox="0 0 750.000000 750.000000"
 preserveAspectRatio="xMidYMid meet">
<metadata>
Created by potrace 1.14, written by Peter Selinger 2001-2017
</metadata>
<g transform="translate(0.000000,750.000000) scale(0.100000,-0.100000)"
fill="#000000" stroke="none">
<path d="M3124 7026 c5 -15 4 -17 -7 -8 -10 9 -17 8 -27 -1 -10 -9 -11 -9 -6
1 4 6 2 12 -3 12 -6 0 -11 -8 -11 -17 -1 -17 -1 -17 -11 0 -5 9 -15 17 -21 17
-7 0 -6 -5 1 -14 10 -12 8 -13 -8 -9 -12 3 -29 -1 -38 -8 -15 -12 -16 -12 -10
5 6 16 5 17 -8 6 -8 -7 -12 -17 -8 -23 4 -7 0 -8 -11 -4 -25 10 -40 -1 -26
-18 9 -11 8 -13 -8 -10 -16 3 -19 -1 -14 -17 3 -12 1 -19 -4 -15 -5 3 -10 -13
-11 -35 -1 -23 -8 -45 -15 -49 -9 -6 -8 -9 7 -10 l20 0 -20 -9 c-11 -5 -14 -9
-7 -9 6 -1 12 -8 12 -17 0 -8 -5 -12 -11 -8 -6 3 -3 -6 7 -22 11 -15 14 -25 7
-21 -6 4 -14 3 -18 -3 -3 -5 -1 -10 6 -10 6 0 9 -8 6 -19 -2 -10 0 -26 6 -36
6 -12 6 -16 -1 -11 -6 3 -13 2 -17 -4 -3 -5 -1 -10 6 -10 6 0 9 -8 6 -19 -2
-10 0 -26 5 -35 5 -9 6 -16 1 -15 -20 3 -27 -2 -13 -11 13 -8 13 -13 2 -31 -8
-11 -9 -18 -3 -14 6 3 11 -1 11 -10 0 -10 -5 -14 -12 -9 -10 6 -10 4 0 -7 14
-15 17 -33 4 -25 -5 3 -9 -1 -9 -9 0 -18 9 -19 25 -3 9 9 9 5 0 -14 -7 -15
-17 -24 -23 -20 -5 3 -2 -4 8 -15 18 -21 18 -22 0 -32 -10 -6 -12 -11 -5 -11
6 0 12 -5 12 -11 0 -5 -4 -8 -8 -5 -5 3 -9 -1 -9 -9 0 -8 4 -12 9 -9 9 6 6
-25 -4 -42 -8 -12 -6 -34 5 -51 4 -6 1 -14 -5 -16 -10 -4 -10 -6 0 -6 6 -1 12
-6 12 -12 0 -5 -6 -7 -12 -3 -10 6 -10 4 0 -7 6 -7 12 -21 12 -31 0 -10 5 -18
11 -18 8 0 8 -4 0 -14 -10 -12 -9 -14 7 -10 12 4 22 -2 30 -18 10 -18 11 -18
7 -3 -5 20 -5 20 10 1 8 -11 15 -14 15 -7 0 13 31 12 41 -2 8 -11 51 -18 44
-6 -4 5 -10 7 -15 4 -5 -3 -11 -2 -14 3 -2 4 6 8 20 8 13 0 24 -3 24 -7 0 -9
27 -5 37 6 4 4 2 5 -6 0 -10 -5 -12 -4 -7 3 5 9 13 9 27 2 15 -9 19 -7 19 7 0
15 2 16 10 3 8 -13 11 -13 22 -1 10 10 10 12 1 7 -7 -4 -13 -2 -13 3 0 10 14
15 33 12 5 -1 6 3 2 9 -4 6 -1 19 7 28 12 16 11 16 -6 2 -18 -14 -19 -14 -7 9
18 33 20 79 4 92 -8 8 -10 17 -3 28 5 9 5 23 0 31 -10 16 -1 42 12 34 5 -3 4
4 -4 15 -11 18 -11 23 2 31 8 6 10 10 3 10 -6 0 -10 8 -9 18 2 9 -2 20 -8 24
-7 5 -4 8 7 8 10 0 15 5 12 10 -4 6 -11 8 -16 5 -5 -4 -9 -1 -9 4 0 6 5 11 10
11 6 0 10 5 10 11 0 5 -4 8 -9 5 -10 -7 -9 20 2 30 3 4 2 15 -4 25 -5 11 -6
19 -2 18 20 -3 23 2 12 22 -9 17 -8 20 2 14 9 -6 11 -3 6 9 -5 11 -3 15 5 10
8 -5 9 -2 5 10 -6 14 -4 15 16 5 20 -11 21 -11 8 4 -12 15 -11 17 12 17 14 0
28 6 30 13 4 10 6 10 6 0 1 -7 6 -13 12 -13 6 0 9 7 6 14 -4 10 -1 13 8 9 8
-3 13 -8 10 -12 -2 -4 3 -8 11 -8 8 0 13 5 11 11 -7 17 43 12 54 -5 7 -11 9
-11 9 4 0 9 5 17 11 17 5 0 8 -4 5 -9 -3 -5 2 -15 11 -22 11 -10 14 -10 9 -2
-4 7 -3 20 2 29 8 15 10 15 15 0 5 -11 3 -15 -5 -10 -7 4 -8 3 -4 -4 5 -9 14
-7 31 4 21 14 24 14 34 -3 10 -17 10 -17 11 0 0 9 5 17 10 17 6 0 9 -3 9 -7
-4 -22 3 -23 19 -3 14 18 19 19 19 7 0 -9 -4 -14 -9 -11 -4 3 -8 0 -8 -5 0
-15 6 -14 34 5 18 11 26 12 32 3 5 -8 3 -9 -6 -4 -9 5 -11 4 -6 -3 10 -17 26
-15 26 3 0 8 5 15 11 15 5 0 7 -4 4 -10 -3 -5 -1 -10 5 -10 6 0 8 -5 4 -12 -4
-7 -3 -8 5 -4 6 4 9 12 6 17 -4 5 1 9 9 9 9 0 16 -4 16 -10 0 -5 5 -10 11 -10
5 0 8 4 5 8 -2 4 0 14 6 22 8 13 9 12 5 -2 -8 -23 4 -31 18 -12 10 14 13 14
26 2 16 -16 63 -18 76 -4 4 5 3 6 -3 3 -6 -3 -11 1 -11 10 0 13 4 12 18 -5 17
-21 36 -31 25 -13 -13 20 25 19 45 -2 15 -16 19 -18 14 -4 -8 19 10 24 18 5 4
-10 6 -10 6 0 1 6 6 12 12 12 5 0 8 -4 5 -9 -7 -11 21 -8 31 4 4 4 2 5 -4 1
-9 -5 -11 -2 -6 10 5 14 8 13 19 -7 7 -13 13 -19 14 -13 0 18 28 25 42 10 11
-11 16 -11 26 1 10 10 18 10 32 3 15 -8 20 -7 20 2 0 9 3 9 9 -2 6 -8 7 -18 5
-22 -3 -4 3 -5 12 -1 12 4 15 3 10 -5 -9 -15 6 -16 21 -1 9 9 11 5 9 -17 -4
-35 3 -56 15 -48 10 6 10 4 11 -99 1 -37 -1 -70 -4 -73 -4 -3 -2 -19 2 -35 5
-18 5 -29 -1 -29 -6 0 -7 -5 -3 -12 11 -18 4 -110 -9 -127 -9 -12 -9 -13 1 -7
7 4 12 2 12 -8 0 -8 -6 -17 -12 -19 -10 -4 -10 -6 0 -6 6 -1 12 -10 12 -22 0
-13 4 -18 13 -13 8 5 8 2 -2 -9 -13 -16 -8 -22 13 -18 5 1 3 -6 -5 -15 -13
-16 -12 -16 10 -5 15 8 21 9 17 2 -7 -11 6 -15 33 -12 8 2 10 -2 5 -11 -6 -9
-3 -9 10 1 15 13 19 13 26 1 5 -8 6 -19 2 -25 -3 -5 1 -4 10 2 8 7 19 9 23 5
5 -4 5 -2 1 5 -3 6 -2 14 4 18 5 3 10 2 10 -3 0 -5 11 -9 25 -9 22 0 24 2 13
15 -11 13 -11 14 2 7 8 -5 24 -9 35 -10 23 0 58 31 50 45 -4 6 -1 10 6 10 7 0
9 3 6 7 -4 3 -1 13 6 21 9 13 9 14 0 8 -7 -4 -13 -3 -13 3 0 5 5 13 11 17 8 4
7 9 -2 16 -11 8 -11 11 -1 15 10 4 10 8 1 20 -10 12 -10 16 2 24 8 5 10 9 4 9
-5 0 -11 11 -11 25 -1 16 2 22 10 18 7 -4 7 -1 -1 8 -13 16 -13 75 1 97 4 6 4
18 -1 25 -11 18 -12 70 -1 84 5 7 5 14 -1 17 -6 4 -7 14 -4 23 4 11 3 14 -5 9
-9 -5 -10 -1 -3 16 4 13 7 31 6 40 -2 10 0 20 5 23 11 7 0 45 -14 45 -6 0 -3
5 7 11 12 7 15 15 9 22 -5 7 -9 26 -7 42 1 17 -3 36 -9 44 -8 11 -8 13 1 8 8
-5 11 1 9 20 -2 15 -8 29 -15 31 -6 2 -11 8 -11 13 0 6 5 7 11 4 6 -4 5 2 -2
13 -7 12 -17 18 -23 15 -5 -4 -7 1 -3 10 4 12 2 14 -11 10 -15 -6 -15 -4 -4 9
11 14 10 16 -12 14 -15 -2 -26 0 -26 4 0 3 -16 6 -35 5 -25 -2 -40 4 -49 17
-12 17 -14 17 -20 2 -5 -13 -9 -14 -20 -5 -16 13 -37 11 -48 -4 -5 -6 -8 -5
-8 3 0 7 -5 10 -11 6 -6 -3 -16 0 -21 7 -8 11 -9 10 -4 -3 3 -10 1 -18 -4 -18
-6 0 -10 6 -10 13 0 8 -4 7 -10 -3 -6 -10 -10 -11 -10 -2 0 6 -4 12 -10 12 -5
0 -7 -8 -4 -17 5 -16 4 -16 -6 0 -11 18 -13 18 -33 0 -15 -12 -18 -13 -9 -2 9
13 9 16 -3 16 -8 0 -15 -5 -15 -11 0 -6 -7 -3 -14 7 -10 12 -15 14 -18 6 -2
-7 -12 -13 -21 -15 -9 -1 -15 2 -12 6 3 5 -4 8 -15 7 -11 -1 -20 -6 -20 -12 0
-7 -3 -7 -8 0 -4 6 -16 11 -27 11 -11 0 -23 -5 -27 -11 -5 -6 -8 -5 -8 3 0 7
-5 10 -11 6 -6 -3 -16 0 -21 7 -8 11 -9 10 -4 -3 3 -10 1 -18 -4 -18 -6 0 -10
6 -10 13 0 8 -4 7 -10 -3 -6 -10 -10 -11 -10 -2 0 6 -4 12 -10 12 -5 0 -7 -8
-4 -17 5 -15 4 -15 -5 -3 -13 19 -52 19 -69 0 -8 -8 -11 -9 -7 -2 3 6 1 12 -5
12 -6 0 -8 5 -4 12 4 7 3 8 -5 4 -6 -4 -8 -12 -5 -18 5 -7 2 -8 -7 -2 -19 12
-33 12 -41 -1 -5 -6 -8 -5 -8 3 0 7 -5 10 -11 6 -6 -3 -16 0 -21 7 -8 11 -9
10 -4 -3 3 -10 1 -20 -5 -23 -5 -4 -8 -1 -7 6 2 6 -3 14 -11 17 -9 3 -11 0 -6
-8 6 -10 4 -11 -6 -4 -21 13 -39 14 -39 1 0 -8 -3 -7 -9 1 -4 8 -12 14 -16 14
-4 0 -12 -6 -16 -14 -7 -11 -9 -10 -9 1 0 11 -4 9 -15 -5 -8 -10 -15 -14 -14
-9 3 24 -2 34 -16 29 -8 -4 -12 -10 -9 -15 3 -5 0 -9 -5 -9 -6 0 -11 6 -11 13
0 8 -4 7 -10 -3 -9 -13 -10 -13 -10 0 0 13 -1 13 -10 0 -6 -10 -10 -11 -10 -2
0 6 -7 12 -16 12 -8 0 -12 -4 -9 -10 3 -5 1 -10 -4 -10 -6 0 -11 6 -11 13 0 8
-4 7 -10 -3 -9 -13 -10 -13 -10 0 0 13 -1 13 -10 0 -5 -8 -10 -10 -10 -3 0 15
-23 11 -46 -7 -17 -14 -18 -14 -6 2 13 16 10 17 -25 13 -21 -2 -42 2 -46 8 -6
8 -7 5 -3 -7 5 -15 4 -17 -8 -7 -10 8 -16 9 -21 1 -3 -5 -12 -10 -18 -10 -7 0
-6 4 3 10 11 7 3 8 -25 6 -23 -3 -43 1 -48 7 -6 8 -7 5 -3 -7z m880 -14 c3 -5
-1 -9 -9 -9 -8 0 -12 4 -9 9 3 4 7 8 9 8 2 0 6 -4 9 -8z m320 0 c3 -5 -1 -9
-9 -9 -8 0 -12 4 -9 9 3 4 7 8 9 8 2 0 6 -4 9 -8z m-500 -300 c3 -5 -1 -9 -9
-9 -8 0 -12 4 -9 9 3 4 7 8 9 8 2 0 6 -4 9 -8z"/>
<path d="M4416 7022 c-3 -5 1 -9 9 -9 8 0 12 4 9 9 -3 4 -7 8 -9 8 -2 0 -6 -4
-9 -8z"/>
<path d="M3375 6701 c-3 -5 -2 -12 3 -15 5 -3 9 1 9 9 0 17 -3 19 -12 6z"/>
<path d="M3495 6701 c-3 -5 -2 -12 3 -15 5 -3 9 1 9 9 0 17 -3 19 -12 6z"/>
<path d="M4055 6700 c-3 -5 -1 -10 4 -10 6 0 11 5 11 10 0 6 -2 10 -4 10 -3 0
-8 -4 -11 -10z"/>
<path d="M4115 6700 c-3 -5 -1 -10 4 -10 6 0 11 5 11 10 0 6 -2 10 -4 10 -3 0
-8 -4 -11 -10z"/>
<path d="M7128 6227 c9 -10 5 -13 -16 -14 -57 -2 -70 -7 -67 -24 3 -12 -1 -16
-11 -12 -7 3 -11 10 -7 16 3 6 1 7 -5 3 -7 -4 -12 -13 -12 -21 0 -12 -27 -30
-42 -27 -5 1 -8 -2 -8 -6 0 -5 -7 -9 -15 -9 -8 0 -15 5 -15 10 0 6 -3 7 -6 4
-4 -4 -1 -14 7 -23 13 -16 12 -17 -9 -12 -13 4 -20 2 -16 -4 4 -6 -5 -20 -20
-33 -14 -12 -22 -25 -19 -29 4 -4 0 -4 -10 -1 -12 5 -19 0 -26 -18 -6 -14 -19
-28 -31 -32 -11 -3 -18 -11 -14 -16 3 -5 10 -6 16 -3 6 4 8 3 5 -3 -4 -6 -18
-9 -31 -8 -17 2 -23 -1 -19 -11 7 -19 -47 -66 -69 -61 -10 3 -18 1 -18 -5 0
-5 -5 -6 -10 -3 -6 4 -7 11 -4 17 4 7 2 8 -5 4 -6 -4 -9 -12 -6 -17 4 -5 1 -9
-4 -9 -6 0 -11 6 -11 13 0 9 -3 8 -9 -2 -7 -11 -11 -10 -20 5 -9 17 -10 17
-11 2 0 -9 -5 -20 -12 -24 -7 -4 -8 -3 -4 4 5 8 0 12 -13 12 -10 0 -22 6 -24
13 -4 8 -6 6 -6 -4 -1 -12 -8 -15 -26 -11 -14 2 -23 8 -20 11 2 4 -2 8 -9 8
-8 0 -12 -6 -10 -12 7 -18 -33 -11 -58 11 -14 12 -18 13 -10 3 10 -14 9 -17
-8 -22 -11 -3 -23 0 -27 5 -4 7 -1 8 8 3 8 -5 10 -4 6 0 -10 11 -39 16 -32 5
8 -14 -35 -19 -48 -6 -10 11 -15 10 -25 0 -13 -14 -42 -9 -42 8 0 5 -7 2 -16
-6 -10 -11 -21 -13 -32 -7 -9 4 -23 6 -31 3 -8 -3 -11 0 -7 7 4 6 2 11 -3 11
-6 0 -11 -8 -11 -17 0 -15 -2 -14 -16 3 -8 10 -13 13 -9 7 3 -7 1 -13 -4 -13
-6 0 -11 5 -11 11 0 6 -7 3 -16 -5 -14 -14 -34 -14 -34 0 0 3 4 3 9 -1 5 -3
12 -1 15 4 4 5 -1 8 -10 7 -8 -1 -20 -9 -24 -16 -7 -11 -11 -9 -19 10 -7 18
-10 20 -10 8 -1 -10 -8 -18 -17 -18 -8 0 -13 4 -10 8 3 5 -1 9 -9 9 -8 0 -12
-4 -9 -9 6 -9 -8 -11 -43 -8 -33 2 -66 -19 -59 -37 6 -14 4 -14 -10 -2 -16 13
-16 12 -5 -8 10 -19 9 -22 -4 -17 -9 4 -15 3 -14 -2 1 -5 0 -11 -1 -14 -9 -25
-4 -41 16 -54 14 -10 21 -22 18 -31 -4 -8 -1 -15 6 -15 6 0 8 -5 4 -12 -6 -10
-4 -10 8 0 13 10 18 10 24 1 5 -8 3 -9 -6 -4 -8 5 -11 4 -6 -3 4 -6 13 -9 21
-6 14 6 49 -19 40 -28 -3 -3 2 -5 10 -5 8 0 12 4 9 9 -3 4 0 8 5 8 6 0 11 -4
11 -10 0 -5 7 -10 16 -10 9 0 12 -5 8 -12 -5 -7 -3 -8 6 -3 10 6 9 11 -5 22
-11 7 -14 13 -7 13 6 0 17 -9 25 -20 9 -13 20 -18 31 -14 11 4 15 2 11 -8 -4
-9 0 -15 9 -15 8 0 13 4 10 9 -3 4 -1 8 4 8 6 0 13 -8 16 -17 6 -15 8 -15 16
-3 8 12 10 12 10 -4 0 -13 5 -17 18 -14 10 3 23 -1 31 -9 10 -12 16 -12 29 -1
9 8 13 8 9 1 -7 -11 46 -36 56 -26 10 10 68 -28 60 -40 -4 -7 0 -7 10 2 13 10
17 10 17 1 0 -9 4 -9 17 1 11 10 14 10 9 2 -4 -8 -1 -13 8 -13 9 0 16 -5 16
-11 0 -5 4 -8 8 -5 4 2 14 1 22 -5 11 -6 12 -9 2 -9 -7 0 -10 -4 -7 -10 3 -5
1 -10 -5 -10 -6 0 -8 -4 -5 -10 3 -5 0 -10 -7 -10 -9 0 -9 -3 2 -10 8 -5 12
-10 8 -11 -5 -1 -12 -3 -18 -4 -5 -1 -13 -3 -17 -4 -5 -1 -1 -6 7 -11 10 -6
11 -10 3 -10 -7 0 -13 -7 -13 -16 0 -8 -4 -13 -9 -9 -6 3 -8 -4 -6 -15 4 -19
-6 -25 -30 -20 -5 1 -5 -4 2 -11 14 -14 6 -42 -10 -32 -6 4 -8 0 -4 -11 4 -10
1 -19 -8 -22 -8 -4 -15 -10 -15 -16 0 -5 6 -6 13 -3 6 4 4 0 -5 -8 -10 -8 -15
-17 -11 -20 3 -4 1 -7 -6 -7 -7 0 -10 -4 -6 -9 3 -5 1 -12 -5 -16 -6 -4 -7
-12 -3 -18 4 -7 -1 -6 -10 2 -10 8 -20 11 -24 7 -3 -3 -1 -6 5 -6 7 0 12 -5
12 -11 0 -5 -4 -8 -9 -4 -5 3 -13 0 -17 -6 -4 -8 -9 -7 -15 2 -7 11 -9 9 -9
-6 0 -16 -2 -17 -9 -5 -6 8 -7 19 -4 25 2 5 -5 -1 -17 -15 -12 -14 -19 -19
-15 -12 3 6 1 12 -4 12 -6 0 -11 -6 -12 -12 0 -7 -4 -4 -9 7 -8 18 -9 18 -10
-5 -2 -18 -4 -20 -7 -7 -2 9 -9 17 -14 17 -6 0 -7 -6 -3 -12 5 -9 2 -9 -9 1
-15 12 -17 11 -17 -3 0 -10 -5 -14 -10 -11 -6 4 -8 10 -5 14 6 10 -44 5 -53
-5 -4 -4 1 -4 10 -1 10 3 19 3 22 -1 2 -4 -6 -9 -20 -10 -13 -1 -24 4 -24 11
0 8 -3 8 -9 -2 -5 -8 -18 -12 -30 -8 -15 4 -21 0 -22 -11 0 -11 -2 -12 -6 -4
-6 15 -33 16 -33 1 0 -5 6 -7 13 -3 9 6 9 5 0 -8 -7 -8 -10 -18 -6 -22 4 -4 0
-4 -10 0 -10 3 -17 1 -17 -5 0 -6 5 -11 10 -11 6 0 10 -6 9 -12 -3 -28 2 -37
18 -31 11 4 14 3 9 -6 -6 -9 -2 -12 10 -10 24 3 55 -11 49 -21 -3 -5 5 -6 17
-2 12 3 19 1 15 -4 -3 -5 2 -10 11 -11 55 -3 70 -8 62 -18 -11 -14 18 -14 39
0 10 5 12 4 7 -3 -4 -7 -2 -12 4 -12 6 0 8 -5 4 -12 -6 -10 -4 -10 8 0 13 10
18 10 24 1 4 -8 3 -9 -4 -5 -7 4 -12 2 -12 -3 0 -6 5 -11 12 -11 6 0 3 -7 -8
-15 -16 -13 -16 -14 -1 -9 9 3 17 2 17 -4 0 -5 -11 -13 -25 -16 -14 -4 -25
-11 -25 -17 0 -6 4 -8 9 -4 5 3 12 2 15 -3 4 -7 -9 -11 -51 -14 -10 -1 -10 -5
-1 -15 8 -10 8 -13 0 -11 -6 2 -18 -6 -27 -17 -9 -11 -13 -13 -9 -5 6 11 2 10
-13 -3 -11 -9 -24 -14 -28 -10 -5 5 -3 -1 5 -11 13 -17 13 -18 1 -11 -11 6
-13 4 -8 -8 3 -9 3 -16 -1 -16 -19 3 -51 -14 -45 -24 4 -6 0 -8 -10 -4 -18 7
-41 -17 -34 -36 3 -8 -1 -14 -8 -14 -7 0 -11 7 -9 16 3 9 -1 6 -7 -6 -7 -13
-19 -23 -27 -23 -9 0 -13 -3 -9 -6 3 -4 -1 -13 -9 -21 -8 -8 -12 -18 -10 -21
2 -4 -6 -8 -19 -8 -31 -2 -87 -45 -80 -62 2 -7 1 -11 -4 -7 -12 7 -41 -5 -41
-17 0 -6 8 -4 18 3 15 13 16 12 3 -4 -11 -13 -17 -15 -28 -6 -11 10 -12 8 -6
-7 6 -17 5 -17 -10 -5 -15 12 -17 12 -10 -4 5 -15 3 -17 -12 -12 -16 7 -16 5
-4 -10 9 -11 10 -14 2 -9 -7 4 -21 2 -30 -4 -16 -10 -16 -11 2 -5 15 4 17 3 9
-5 -6 -6 -20 -12 -31 -13 -12 0 -19 -6 -16 -13 2 -7 0 -14 -5 -18 -11 -7 -12
-2 -15 132 -2 75 0 112 7 112 8 0 8 2 0 8 -14 9 -14 112 0 112 8 0 8 3 0 8
-10 7 -14 401 -4 400 21 -2 28 5 25 23 -3 17 -1 19 10 9 10 -8 15 -8 21 1 5 8
3 9 -6 4 -9 -5 -11 -4 -6 4 4 6 12 9 17 5 5 -3 7 -10 4 -15 -4 -5 -1 -9 6 -9
9 0 9 -3 0 -14 -9 -11 -9 -16 0 -22 8 -4 9 -3 5 4 -4 7 -3 12 2 12 5 0 14 -10
21 -22 6 -13 9 -15 7 -5 -3 9 -1 17 5 17 6 0 8 4 5 8 -6 11 25 9 42 -2 7 -4
16 -5 19 -2 4 3 1 6 -5 6 -7 0 -12 4 -12 9 0 5 10 7 23 4 18 -4 20 -3 7 7 -13
10 -12 11 3 6 10 -3 21 -6 23 -6 3 0 2 -5 -2 -12 -4 -7 -3 -8 5 -4 6 4 9 11 6
16 -3 5 -1 11 5 15 5 3 10 2 10 -3 0 -5 7 -9 15 -9 12 0 12 3 2 16 -8 10 -8
13 0 8 6 -4 14 -1 16 5 4 10 6 10 6 1 1 -7 6 -13 12 -13 6 0 9 7 5 15 -3 8 -1
14 5 12 6 -1 18 8 26 21 14 20 14 22 1 17 -12 -5 -14 0 -10 21 3 19 1 25 -7
20 -6 -4 -11 -1 -11 8 0 8 -6 17 -12 19 -7 3 -4 6 7 7 19 1 19 1 1 15 -12 9
-17 22 -13 35 3 13 1 18 -6 13 -6 -4 -8 2 -5 15 4 12 2 25 -3 28 -5 3 -9 0 -9
-7 0 -7 -3 -9 -6 -6 -4 4 -1 14 7 24 8 9 9 14 3 10 -7 -4 -14 0 -18 8 -3 8 -1
15 5 15 6 0 3 7 -5 16 -9 8 -14 19 -11 24 3 5 -1 10 -7 13 -10 3 -10 9 1 28
13 23 13 23 -5 7 -19 -16 -20 -16 -20 2 0 10 4 16 8 14 4 -3 5 2 2 10 -3 9
-11 13 -17 9 -6 -3 -7 -1 -3 5 4 6 1 22 -6 34 -6 13 -11 31 -9 42 2 13 -1 16
-11 10 -9 -5 -8 -2 2 11 9 11 10 16 3 11 -8 -4 -13 -1 -13 9 0 9 -4 14 -8 11
-5 -3 -9 1 -9 9 0 8 4 12 9 9 15 -10 8 9 -9 23 -11 9 -12 11 -3 7 10 -5 8 1
-5 16 -13 15 -15 21 -5 16 8 -4 7 -1 -3 7 -18 15 -18 15 0 20 14 4 14 5 -4 6
-13 0 -23 6 -23 12 0 5 5 7 11 3 8 -5 8 -1 0 13 -6 11 -8 23 -5 26 3 3 -3 11
-14 18 -12 7 -18 20 -16 33 3 12 2 15 -2 9 -4 -9 -11 -10 -22 -4 -20 10 -56
-10 -44 -25 4 -4 0 -4 -8 2 -11 8 -22 7 -37 -1 -13 -6 -20 -14 -18 -17 3 -3
-1 -8 -10 -11 -10 -4 -15 0 -16 11 -1 11 -4 8 -9 -8 -4 -14 -9 -18 -9 -10 -1
13 -3 13 -10 1 -5 -8 -15 -16 -23 -17 -7 -2 -22 -5 -33 -7 -20 -5 -83 38 -66
45 5 2 -3 12 -17 23 -15 10 -22 13 -15 5 9 -12 7 -15 -15 -16 -15 -1 -21 1
-14 3 6 3 12 9 12 14 0 6 -4 7 -10 4 -5 -3 -10 0 -10 7 0 10 -2 10 -8 1 -6 -9
-12 -7 -22 7 -11 16 -17 17 -29 7 -12 -9 -13 -9 -7 1 5 8 -1 12 -19 12 -14 0
-24 4 -20 9 3 5 1 12 -4 15 -5 4 -13 1 -17 -5 -5 -8 -3 -9 7 -4 8 5 10 4 6 0
-4 -5 -14 -10 -23 -11 -11 -2 -13 4 -9 19 5 16 4 18 -3 8 -6 -8 -17 -11 -25
-8 -8 3 -20 0 -26 -6 -9 -9 -11 -8 -6 5 5 12 2 16 -12 13 -10 -2 -22 -4 -26
-4 -5 -1 -5 -7 -2 -13 4 -7 0 -4 -9 6 -8 10 -13 24 -9 30 3 6 -6 0 -22 -14
-19 -17 -26 -20 -22 -8 6 18 -20 19 -31 1 -8 -12 -42 -13 -42 -2 0 4 5 11 10
14 6 3 10 1 10 -6 0 -7 3 -10 6 -6 12 12 -7 28 -21 17 -7 -6 -19 -8 -28 -4 -8
3 -18 1 -22 -5 -9 -15 -28 -14 -19 2 4 6 4 9 -1 5 -4 -4 -15 -2 -24 5 -14 10
-14 10 -3 -5 8 -9 9 -19 4 -22 -6 -3 -13 1 -16 10 -5 13 -9 14 -21 4 -18 -15
-67 -21 -58 -7 4 6 0 8 -10 4 -9 -3 -19 -2 -22 3 -4 6 -14 6 -26 -1 -25 -13
-59 -3 -59 19 0 15 -2 15 -10 2 -8 -13 -10 -12 -10 3 0 10 -8 17 -20 17 -11 0
-20 6 -20 13 0 9 -3 8 -9 -2 -7 -10 -9 -11 -13 -1 -2 8 -25 14 -59 15 -29 1
-48 0 -41 -2 6 -3 9 -10 5 -16 -5 -8 -2 -8 8 0 13 10 16 10 16 -1 0 -8 -7 -13
-16 -11 -9 1 -25 -1 -36 -6 -13 -5 -15 -8 -5 -8 8 -1 2 -8 -13 -16 -21 -10
-34 -12 -47 -5 -24 13 -30 13 -30 -1 0 -5 6 -7 13 -3 6 4 8 3 4 -1 -15 -17
-39 -14 -32 3 5 13 4 14 -6 5 -9 -9 -19 -9 -43 3 -26 12 -28 13 -13 0 13 -10
15 -15 5 -18 -7 -3 -19 2 -27 9 -10 10 -17 11 -24 4 -6 -6 -18 -11 -26 -11
-14 0 -14 2 -1 11 12 9 12 10 -4 5 -10 -4 -26 -1 -35 6 -15 12 -15 11 -1 -6
13 -17 13 -19 0 -14 -8 3 -23 1 -32 -4 -18 -8 -24 1 -18 27 1 6 -11 -1 -26
-15 -17 -16 -25 -19 -22 -9 5 12 0 15 -17 15 -13 -1 -28 -6 -32 -10 -4 -5 -2
-6 5 -2 6 4 12 2 12 -3 0 -14 -13 -14 -28 1 -7 7 -12 8 -12 4 0 -5 -7 -3 -15
4 -13 11 -15 10 -9 -6 4 -15 1 -14 -17 6 -13 15 -20 18 -16 8 3 -10 0 -19 -10
-22 -10 -4 -13 -2 -10 7 3 7 -3 13 -13 13 -10 0 -16 -5 -13 -10 4 -5 -1 -7
-10 -3 -10 4 -28 2 -42 -3 -20 -8 -25 -6 -25 7 0 15 -2 14 -16 -3 -14 -17 -15
-17 -10 -1 5 15 2 16 -14 7 -15 -8 -21 -6 -30 7 -11 17 -11 17 -6 -1 5 -13 2
-17 -8 -13 -7 3 -19 0 -26 -6 -10 -10 -11 -8 -6 7 7 20 7 20 -15 0 -20 -17
-22 -17 -16 -1 6 15 4 16 -13 7 -15 -8 -21 -6 -30 7 -10 15 -11 15 -6 1 3 -10
-2 -18 -15 -21 -14 -4 -19 -1 -16 7 3 7 -1 13 -9 13 -7 0 -11 -4 -8 -9 10 -16
-15 -7 -26 10 -10 14 -11 14 -6 0 3 -10 -2 -18 -15 -21 -16 -4 -19 -2 -14 11
3 9 3 13 -1 9 -4 -4 -13 -2 -21 4 -9 9 -13 8 -13 0 0 -6 6 -11 13 -11 8 0 7
-3 -3 -10 -8 -5 -17 -5 -20 0 -3 5 -14 7 -25 5 -11 -2 -24 -4 -28 -4 -5 -1 -5
-7 -1 -13 5 -10 3 -10 -7 0 -12 11 -12 14 1 23 12 9 12 10 -4 5 -10 -4 -26 -1
-35 6 -15 12 -15 11 -1 -6 13 -17 13 -19 0 -14 -8 3 -23 1 -32 -4 -18 -8 -24
1 -18 27 1 6 -11 -1 -26 -15 -17 -16 -25 -19 -22 -9 4 9 1 16 -8 16 -7 0 -11
-4 -9 -8 3 -4 -2 -10 -11 -13 -11 -4 -15 -2 -11 8 5 12 2 12 -21 0 -24 -12
-27 -12 -30 2 -3 13 -6 13 -19 -3 -14 -17 -14 -17 -9 0 5 15 2 16 -14 7 -15
-8 -21 -6 -30 7 -10 15 -11 16 -6 1 3 -9 -2 -19 -11 -22 -11 -5 -14 -2 -9 9 3
10 2 13 -5 10 -5 -4 -18 -1 -27 6 -14 11 -15 11 -4 -1 15 -18 16 -38 0 -22 -7
7 -17 8 -30 1 -18 -10 -24 -1 -18 26 1 5 -7 2 -18 -8 -10 -9 -22 -14 -25 -11
-4 4 -13 1 -22 -6 -15 -13 -21 -3 -15 25 1 6 -11 -1 -26 -15 -23 -22 -26 -22
-20 -5 4 11 4 16 0 12 -4 -4 -13 -2 -21 4 -9 9 -13 8 -13 0 0 -6 6 -11 13 -11
8 0 7 -3 -3 -10 -8 -5 -17 -5 -20 0 -3 5 -14 7 -25 5 -11 -2 -24 -4 -28 -4 -5
-1 -5 -7 -1 -13 5 -10 3 -10 -7 0 -12 11 -12 14 1 23 12 9 12 10 -4 5 -10 -4
-26 -1 -35 6 -15 12 -15 11 -1 -6 13 -17 13 -19 0 -14 -8 3 -23 1 -32 -4 -18
-8 -24 1 -18 27 1 6 -11 -1 -26 -15 -23 -22 -26 -22 -20 -5 4 11 4 16 0 13 -4
-4 -16 -3 -28 3 -19 9 -20 9 -3 -4 15 -13 16 -15 2 -21 -8 -3 -15 -1 -15 4 0
6 -10 8 -22 6 -13 -3 -27 -5 -31 -5 -5 -1 -5 -7 -1 -13 5 -10 3 -10 -7 0 -12
11 -12 14 0 21 10 7 7 9 -12 8 -14 -1 -23 -5 -21 -9 3 -4 -14 -6 -36 -5 -23 2
-46 -3 -51 -10 -7 -7 -18 -9 -32 -4 -15 6 -26 3 -35 -8 -10 -12 -15 -13 -18
-3 -3 6 -10 12 -15 12 -6 0 -8 -4 -5 -9 9 -14 -17 -19 -39 -8 -18 9 -19 9 -6
-7 12 -15 12 -17 0 -14 -8 2 -17 8 -21 13 -5 6 -8 3 -8 -7 0 -10 -5 -15 -13
-12 -8 3 -19 -5 -26 -18 -6 -13 -9 -15 -7 -6 3 10 1 20 -5 23 -5 4 -8 1 -7 -7
2 -8 -6 -13 -19 -12 -12 0 -20 -2 -18 -6 6 -10 -11 -31 -28 -34 -26 -4 -66
-46 -62 -66 3 -14 -1 -17 -12 -13 -11 4 -14 2 -9 -5 4 -7 2 -12 -4 -12 -7 0
-10 -7 -7 -14 4 -10 1 -13 -9 -9 -9 3 -14 0 -12 -8 2 -8 -3 -13 -11 -11 -11 2
-12 0 -3 -11 10 -12 8 -14 -13 -11 -18 2 -30 -5 -43 -24 -12 -18 -13 -27 -5
-29 8 -3 9 -12 3 -28 -6 -16 -6 -27 2 -31 7 -5 8 -3 3 6 -6 9 -4 11 5 5 10 -6
9 -11 -4 -21 -13 -9 -14 -13 -4 -17 10 -4 10 -8 -2 -16 -13 -10 -13 -11 0 -11
9 0 11 -3 5 -8 -11 -8 -16 -74 -5 -67 3 2 4 -9 2 -25 -2 -18 -9 -27 -15 -23
-6 4 -7 1 -1 -8 12 -20 12 -202 -1 -211 -6 -5 -5 -8 4 -8 11 0 11 -3 0 -17
-10 -11 -10 -14 -1 -9 13 8 17 -6 5 -18 -12 -12 -9 -75 5 -81 10 -4 10 -9 -1
-27 -11 -20 -14 -41 -7 -58 1 -3 3 -16 6 -29 4 -21 3 -22 -13 -10 -17 13 -17
12 -3 -6 16 -21 20 -71 6 -93 -4 -7 -2 -12 3 -12 6 0 11 -5 11 -11 0 -5 -4 -8
-8 -5 -5 3 -9 -1 -9 -9 0 -8 4 -15 9 -15 4 0 8 -5 8 -11 0 -5 -5 -7 -11 -3 -7
4 -7 -1 1 -16 7 -13 8 -20 2 -16 -6 3 -14 1 -18 -5 -4 -7 -3 -9 4 -5 6 3 14 1
18 -5 3 -6 0 -15 -7 -20 -8 -5 -10 -9 -5 -9 5 0 3 -7 -4 -15 -11 -13 -10 -14
2 -10 9 4 15 0 15 -10 0 -8 -5 -15 -10 -15 -5 0 -4 -7 3 -15 7 -8 9 -15 5 -15
-4 0 -1 -8 6 -17 8 -9 9 -14 2 -10 -18 11 -22 -16 -4 -31 9 -8 10 -11 4 -7 -9
4 -12 -3 -9 -24 2 -17 -1 -28 -5 -25 -5 3 -9 0 -9 -5 0 -6 6 -11 13 -11 8 0 7
-4 -3 -10 -9 -6 -11 -10 -3 -10 7 0 10 -7 7 -15 -4 -8 -11 -12 -18 -9 -6 3 -3
-1 6 -9 19 -15 25 -32 8 -22 -7 4 -7 -3 0 -19 9 -23 6 -29 -10 -28 -3 0 -6 -8
-6 -18 0 -13 4 -16 11 -10 8 7 11 -2 11 -31 0 -30 -3 -38 -14 -34 -12 4 -12 2
-4 -8 7 -8 9 -17 5 -21 -4 -4 -1 -11 7 -16 11 -7 11 -11 1 -24 -9 -10 -10 -16
-3 -16 6 0 9 -7 6 -15 -4 -8 -11 -12 -18 -9 -6 3 -2 -1 8 -10 15 -12 16 -19 8
-29 -7 -8 -9 -17 -5 -20 3 -4 0 -13 -7 -22 -11 -13 -10 -15 2 -10 9 4 15 0 15
-10 0 -8 -3 -15 -7 -15 -3 0 -6 -11 -6 -25 0 -14 3 -25 6 -25 3 0 6 -9 6 -19
0 -11 -3 -18 -7 -15 -4 2 -6 -7 -5 -21 0 -14 5 -25 9 -25 4 0 3 -10 -4 -21 -8
-15 -8 -19 0 -15 6 4 11 2 11 -3 0 -6 -4 -11 -8 -11 -12 0 -11 -34 1 -42 7 -4
7 -11 -1 -21 -7 -7 -9 -17 -5 -20 3 -4 0 -13 -7 -22 -11 -13 -10 -14 4 -9 18
7 19 -14 1 -29 -6 -6 -5 -10 3 -14 10 -4 9 -9 -4 -24 -14 -16 -15 -19 -3 -14
10 4 16 0 16 -10 0 -8 -5 -15 -10 -15 -5 0 -3 -8 4 -17 10 -11 10 -14 1 -9 -6
4 -12 2 -12 -3 0 -6 6 -11 13 -11 8 0 7 -4 -3 -10 -9 -6 -11 -10 -3 -10 7 0
10 -7 7 -15 -4 -8 -11 -12 -18 -9 -6 3 -3 -1 7 -9 17 -14 24 -33 9 -23 -4 2
-8 -4 -8 -15 0 -10 4 -19 8 -19 5 0 4 -9 -2 -19 -8 -16 -6 -22 7 -30 11 -6 13
-11 5 -11 -9 0 -12 -10 -8 -30 2 -17 0 -28 -5 -24 -5 3 -9 0 -9 -5 0 -6 6 -11
13 -11 8 0 7 -4 -3 -10 -11 -7 -11 -10 -2 -10 7 0 10 -5 7 -10 -4 -6 -12 -7
-18 -3 -9 5 -8 2 0 -8 10 -13 10 -16 -2 -16 -8 0 -15 4 -15 9 0 10 -27 11 -33
1 -2 -5 -2 -2 0 6 2 8 -2 11 -12 7 -10 -3 -15 1 -15 12 0 15 -2 15 -10 2 -8
-12 -10 -12 -10 5 0 17 -2 17 -10 5 -5 -8 -10 -10 -10 -4 0 10 -53 29 -72 25
-4 0 -5 6 -2 14 7 18 -7 20 -23 4 -9 -9 -11 -7 -6 9 4 17 1 20 -19 15 -18 -4
-20 -3 -8 6 10 7 11 11 2 11 -6 0 -22 11 -34 25 -11 13 -26 21 -31 18 -7 -4
-8 1 -3 12 6 16 4 16 -11 4 -11 -9 -14 -10 -9 -1 5 8 1 12 -11 12 -14 0 -15 2
-4 9 10 7 9 11 -5 22 -21 16 -33 56 -13 43 8 -4 10 -3 5 4 -4 7 -15 12 -24 12
-13 0 -13 2 4 15 10 8 14 15 7 15 -7 0 -10 7 -6 17 4 10 2 14 -4 10 -13 -8
-11 19 2 30 4 5 5 1 0 -7 -5 -8 -4 -12 0 -7 5 4 8 26 6 47 -2 26 2 40 9 40 9
0 9 5 -1 17 -10 12 -10 15 -1 9 8 -5 14 2 18 23 4 17 10 31 15 31 5 0 5 7 2
17 -5 12 -3 14 7 8 10 -6 12 -4 7 8 -3 9 0 18 8 21 9 3 12 12 8 23 -3 10 -3
15 2 11 4 -4 14 0 21 10 9 13 10 20 1 31 -9 12 -9 13 1 7 7 -4 12 -2 12 4 0 6
5 8 13 4 7 -5 6 0 -3 11 -9 11 -10 16 -2 11 7 -4 12 -2 12 4 0 6 5 8 10 5 6
-4 13 8 16 25 4 19 12 29 19 26 8 -3 11 2 8 15 -3 11 1 21 11 25 9 3 13 10 10
15 -3 5 0 9 6 9 7 0 10 7 6 15 -5 13 -2 14 15 4 19 -10 20 -9 9 11 -8 15 -8
20 -1 16 6 -4 11 -2 11 4 0 6 4 8 10 5 6 -4 7 1 3 11 -5 14 -3 16 12 11 16 -7
16 -5 4 10 -9 11 -10 14 -2 9 9 -5 20 5 34 28 12 20 26 33 32 29 6 -3 7 -1 3
6 -4 6 -11 9 -16 6 -5 -3 -11 -1 -14 4 -4 5 -1 13 5 17 8 5 9 3 4 -5 -6 -10
-3 -11 13 -2 17 9 23 8 30 -5 8 -15 10 -15 15 0 4 10 3 14 -2 11 -6 -3 -14 3
-20 12 -6 11 -11 13 -11 5 0 -7 -5 -10 -11 -7 -13 9 -51 -24 -43 -37 4 -6 -4
-5 -16 2 -15 8 -20 8 -16 1 4 -6 0 -14 -9 -17 -9 -4 -14 -13 -11 -20 3 -8 0
-11 -10 -7 -8 3 -14 -1 -14 -8 0 -11 -3 -11 -10 1 -8 13 -10 12 -10 -3 0 -11
-4 -15 -12 -11 -8 5 -9 2 -4 -11 6 -16 4 -16 -11 -4 -9 8 -14 9 -10 2 7 -11
-28 -30 -46 -25 -4 1 -3 -7 3 -19 10 -19 10 -20 -8 -10 -18 9 -19 8 -15 -12 4
-18 3 -19 -6 -7 -9 13 -11 12 -11 -3 0 -11 -4 -15 -12 -11 -8 5 -9 2 -5 -10 6
-14 4 -15 -14 -5 -13 6 -19 7 -15 1 9 -15 -4 -42 -20 -42 -8 0 -14 -7 -14 -16
0 -14 -3 -14 -15 -4 -13 11 -14 10 -9 -4 3 -9 1 -16 -6 -16 -6 0 -8 -5 -4 -12
5 -8 2 -9 -12 -4 -10 4 -15 4 -12 0 11 -11 -11 -44 -30 -44 -15 0 -15 -2 -2
-10 13 -8 12 -10 -2 -10 -10 0 -17 -3 -17 -7 3 -19 -2 -33 -12 -33 -5 0 -7 5
-3 12 4 7 3 8 -5 4 -9 -6 -9 -11 1 -24 10 -12 10 -14 0 -8 -7 4 -12 1 -12 -8
0 -9 -9 -21 -20 -28 -22 -14 -28 -33 -7 -23 6 4 1 -3 -13 -15 -14 -12 -19 -19
-13 -15 17 8 4 -27 -13 -38 -7 -4 -10 -15 -7 -24 4 -10 2 -14 -4 -10 -7 5 -9
-1 -5 -15 4 -15 2 -19 -7 -13 -10 6 -11 3 -2 -13 9 -17 8 -23 -6 -31 -10 -6
-13 -11 -7 -11 6 0 11 -7 11 -15 0 -8 -4 -12 -9 -9 -4 3 -8 2 -9 -3 0 -4 -2
-18 -3 -30 -2 -13 1 -23 5 -23 4 0 9 -7 12 -14 4 -10 1 -13 -8 -10 -10 4 -12
0 -8 -15 3 -11 9 -19 13 -16 5 3 6 -4 3 -15 -3 -11 1 -28 8 -37 8 -9 9 -14 3
-10 -6 3 -11 0 -11 -8 0 -8 4 -12 9 -9 8 5 11 -9 11 -49 0 -14 2 -15 15 -5 12
10 14 10 8 1 -4 -7 -3 -13 1 -13 5 0 10 -12 11 -26 1 -15 10 -34 20 -43 10 -9
25 -28 35 -43 10 -16 25 -28 33 -28 10 0 14 -6 11 -15 -4 -8 -1 -17 5 -21 7
-4 8 -3 4 4 -4 7 -2 12 3 12 6 0 11 -6 11 -14 0 -7 7 -19 15 -26 13 -11 15
-10 10 6 -4 10 2 4 13 -15 12 -22 22 -30 26 -22 10 16 26 4 19 -14 -4 -11 -1
-13 11 -9 10 4 18 0 22 -10 3 -9 15 -16 25 -16 10 0 19 -5 19 -11 0 -5 6 -7
13 -3 8 5 7 2 -2 -9 -13 -16 -12 -17 12 -8 22 8 25 8 20 -5 -4 -10 2 -17 16
-21 12 -3 18 -10 14 -17 -3 -6 0 -6 8 2 11 10 16 8 27 -10 8 -14 11 -16 8 -5
-5 15 -2 16 14 7 11 -6 20 -13 20 -16 0 -3 -4 -2 -10 1 -5 3 -10 4 -10 1 0 -3
10 -10 21 -17 15 -8 19 -8 15 0 -4 6 -2 11 3 11 6 0 11 -5 11 -11 0 -6 7 -8
15 -5 9 3 18 -1 21 -9 4 -8 15 -15 26 -15 13 0 17 -4 12 -12 -5 -8 0 -7 11 2
11 9 16 10 11 3 -7 -13 3 -16 47 -16 9 0 17 -7 18 -16 0 -10 2 -11 6 -4 3 10
11 9 34 -3 17 -8 27 -20 23 -26 -4 -7 -3 -8 5 -4 6 4 9 12 6 17 -3 5 1 6 9 3
9 -3 16 -14 17 -23 0 -12 2 -12 9 4 6 13 9 15 9 5 1 -13 2 -13 11 0 7 11 10
11 10 2 0 -7 4 -10 10 -7 6 4 7 -1 3 -12 -5 -15 -3 -16 8 -6 16 16 33 17 23 2
-4 -7 6 -10 30 -8 25 3 40 -1 46 -11 5 -8 10 -10 10 -4 0 6 7 11 15 11 11 0
12 -4 4 -13 -7 -8 -6 -14 2 -20 7 -4 9 -3 6 3 -4 6 0 13 8 17 8 3 15 1 15 -4
0 -6 5 -10 11 -10 5 0 7 6 3 13 -5 9 -4 9 6 0 7 -6 19 -9 28 -5 11 4 14 1 9
-11 -3 -9 -1 -19 5 -23 6 -4 8 -3 5 2 -3 6 -2 16 4 24 7 13 9 13 9 1 0 -11 5
-9 22 5 19 15 20 16 9 2 -12 -16 -11 -18 12 -18 14 0 29 -4 32 -10 10 -16 25
-12 25 8 1 16 1 16 14 0 15 -21 36 -24 36 -6 0 6 7 3 16 -8 8 -10 13 -14 10
-7 -4 6 -2 14 4 18 5 3 10 1 10 -4 0 -6 5 -11 11 -11 5 0 7 6 3 13 -4 6 1 4
12 -5 19 -17 21 -17 38 0 11 9 16 12 12 6 -3 -7 1 -15 10 -18 8 -3 13 -2 10 3
-3 5 1 12 10 15 11 4 15 2 11 -6 -3 -8 4 -13 19 -13 17 0 23 4 19 14 -4 11 -2
11 8 3 10 -9 17 -8 27 1 8 7 10 8 7 1 -4 -7 3 -14 18 -16 19 -4 23 -2 15 7 -7
8 -5 12 5 12 8 0 15 -5 15 -10 0 -5 8 -3 17 4 11 10 14 10 9 2 -4 -7 -2 -13 3
-13 6 0 11 6 11 13 0 9 3 8 9 -2 7 -11 9 -11 14 0 4 10 6 10 6 2 1 -7 6 -13
12 -13 5 0 7 5 4 10 -3 6 -1 10 4 10 6 0 11 -6 11 -12 0 -9 4 -8 10 2 5 8 10
10 10 4 0 -6 7 -11 15 -11 8 0 12 4 9 9 -3 4 -1 8 5 8 5 0 11 -6 14 -12 3 -10
8 -10 18 1 12 12 12 13 -1 6 -13 -8 -13 -7 -1 8 16 20 22 22 18 6 -1 -6 4 -14
12 -17 8 -2 11 0 7 6 -4 6 2 8 14 5 11 -3 17 -10 13 -16 -4 -6 -1 -7 6 -3 7 5
10 14 7 21 -5 14 18 14 31 0 4 -4 2 -5 -6 0 -10 6 -12 4 -6 -5 7 -11 10 -10
19 1 15 19 51 25 40 7 -6 -10 -5 -10 7 -2 24 18 48 24 45 11 -1 -7 -1 -9 1 -4
3 4 8 5 13 2 5 -3 15 2 23 10 12 11 16 12 20 2 3 -9 7 -9 18 -1 17 13 50 15
65 3 7 -6 16 -3 24 6 7 9 8 15 2 15 -6 0 -13 -5 -15 -10 -3 -6 -4 -5 -3 2 1 7
12 14 24 14 12 1 19 -2 17 -7 -11 -16 29 -1 42 17 14 18 15 18 9 -6 -7 -23 -6
-24 7 -7 11 14 16 15 20 5 4 -9 6 -8 6 3 1 9 8 16 16 16 12 0 12 -3 2 -16 -10
-14 -10 -14 3 -5 8 6 23 12 33 13 49 4 55 6 52 11 -2 3 5 12 17 19 12 8 17 8
13 1 -8 -13 40 -9 52 5 5 4 1 4 -7 0 -13 -8 -13 -6 -1 8 12 15 31 15 31 1 0
-3 -5 -2 -12 2 -7 4 -8 3 -4 -4 10 -17 26 -15 26 3 0 13 4 14 20 5 11 -6 19
-7 18 -3 -2 4 2 8 7 8 6 0 9 -4 7 -8 -1 -5 2 -6 8 -2 6 3 8 10 6 14 -3 4 -1
13 5 21 7 12 9 10 9 -8 0 -19 2 -21 14 -10 8 7 11 18 8 23 -3 6 1 4 10 -3 13
-10 19 -10 31 3 19 18 31 20 21 3 -4 -7 2 -4 14 6 12 11 22 16 22 12 0 -4 10
-1 23 6 32 17 57 20 57 5 0 -8 3 -7 9 3 6 8 8 17 6 20 -2 4 2 7 10 7 11 0 12
-4 4 -13 -7 -8 -6 -14 2 -20 8 -4 9 -3 5 4 -7 11 6 17 27 13 5 -1 5 4 1 10 -4
8 0 9 16 4 18 -6 22 -4 18 7 -4 9 1 14 13 14 10 0 15 -5 11 -11 -4 -6 0 -4 8
5 9 9 21 15 28 12 6 -2 12 2 12 9 0 7 6 5 15 -7 8 -10 15 -14 14 -9 -1 6 -1
17 1 25 1 11 4 9 10 -5 8 -18 9 -18 9 5 1 14 5 21 9 15 4 -5 15 -11 25 -11 12
-1 15 2 8 10 -7 8 0 11 22 11 22 0 31 4 29 14 -3 12 0 12 12 2 10 -8 16 -9 21
-1 3 6 11 7 17 4 7 -5 9 -1 5 9 -4 11 -1 17 9 17 8 0 12 -5 8 -11 -5 -8 -1 -8
13 0 11 6 23 8 25 5 3 -2 11 4 19 13 13 16 12 17 -3 4 -10 -7 -18 -9 -18 -5 0
17 38 35 46 22 5 -7 3 -8 -6 -3 -9 6 -11 4 -5 -5 6 -10 10 -10 20 3 9 13 14
14 24 4 10 -9 12 -9 9 3 -2 8 -7 18 -13 22 -5 4 0 6 12 5 12 0 20 -4 18 -7 -2
-4 2 -7 9 -7 9 0 12 7 8 16 -5 14 -4 14 13 1 11 -9 16 -10 11 -2 -4 7 -1 12 9
12 10 0 14 5 9 13 -6 10 -4 10 7 0 7 -7 18 -13 23 -13 7 0 6 4 -1 8 -8 5 -9
13 -3 22 6 9 10 10 10 3 0 -6 9 -11 19 -10 11 0 18 4 15 8 -2 4 3 10 12 13 8
3 12 11 8 17 -4 8 -3 9 5 5 6 -4 9 -12 6 -17 -4 -5 -1 -9 4 -9 6 0 11 10 11
23 0 16 3 18 9 8 7 -10 12 -8 26 10 l17 24 -7 -25 -7 -25 17 23 c9 12 25 22
36 22 26 0 71 34 61 46 -4 5 0 3 8 -3 11 -8 20 -9 30 -1 12 8 11 8 -5 3 -14
-4 -17 -3 -10 4 6 6 23 12 37 13 20 2 24 6 17 14 -7 8 -6 15 2 20 7 4 9 3 6
-3 -4 -6 4 -10 18 -10 20 0 23 2 15 12 -8 10 -8 15 1 21 8 4 9 3 5 -4 -4 -7
-3 -12 2 -12 6 0 13 7 16 16 3 8 10 12 16 9 5 -3 10 0 10 7 0 9 3 9 10 -2 9
-13 10 -13 11 0 1 8 1 18 0 23 -2 12 17 8 22 -5 3 -8 6 -5 6 5 1 10 6 15 11
12 6 -4 7 -11 4 -17 -4 -7 -2 -8 5 -4 6 4 9 11 6 16 -3 4 2 13 10 20 8 7 13
16 10 20 -2 4 7 5 22 2 22 -4 25 -2 20 12 -4 9 -3 15 2 11 5 -3 11 -2 14 2 2
5 2 2 0 -6 -3 -11 -1 -11 12 -1 8 7 12 17 8 24 -4 6 2 4 12 -4 11 -9 16 -10
11 -2 -7 11 5 17 28 13 5 -1 4 5 -3 13 -11 13 -10 15 8 11 12 -2 21 1 21 6 0
6 4 8 9 5 12 -8 43 29 34 39 -5 5 1 3 11 -5 11 -8 17 -10 13 -3 -9 15 41 63
66 63 10 0 16 4 12 9 -5 9 10 24 30 27 24 5 59 23 45 24 -12 0 -11 3 3 11 9 6
14 16 11 22 -4 7 -3 9 1 4 5 -4 17 0 27 10 10 9 21 13 25 9 10 -10 -11 -41
-28 -41 -8 0 -19 -12 -26 -27 -7 -16 -17 -28 -23 -28 -6 0 -8 -6 -4 -12 4 -7
4 -10 -1 -6 -4 4 -14 0 -22 -10 -8 -9 -11 -11 -7 -3 5 10 3 12 -5 7 -7 -5 -10
-14 -7 -22 3 -8 -1 -14 -10 -14 -9 0 -12 5 -8 12 4 6 3 8 -4 5 -5 -4 -8 -16
-5 -27 3 -12 0 -20 -6 -20 -7 0 -9 5 -5 13 6 9 5 9 -8 0 -8 -7 -19 -9 -24 -5
-4 4 -2 -1 5 -10 10 -13 10 -18 2 -18 -7 0 -9 -5 -5 -12 4 -7 3 -8 -5 -4 -6 4
-9 12 -6 17 4 5 4 9 0 9 -3 0 -10 -11 -15 -25 -5 -14 -25 -31 -46 -40 -25 -10
-34 -19 -30 -30 4 -13 2 -14 -14 -5 -11 6 -20 7 -19 3 4 -21 -2 -33 -16 -33
-13 0 -19 -12 -16 -32 0 -4 -6 -5 -14 -2 -8 4 -15 1 -15 -6 0 -7 -7 -10 -16
-6 -15 6 -15 4 -3 -10 12 -15 12 -16 -7 -10 -14 4 -26 1 -35 -11 -13 -17 -13
-17 6 -3 19 14 19 14 6 -3 -8 -10 -20 -16 -27 -13 -8 3 -11 0 -7 -10 3 -10 0
-12 -10 -8 -10 3 -20 -3 -27 -16 -7 -12 -18 -19 -26 -16 -8 3 -14 -1 -14 -10
0 -10 -6 -14 -15 -10 -11 4 -15 0 -13 -11 2 -9 -4 -18 -12 -20 -12 -4 -12 -3
-1 5 8 6 9 12 3 16 -6 3 -13 -3 -17 -14 -3 -11 -11 -20 -16 -20 -6 0 -7 5 -3
12 4 7 3 8 -5 4 -9 -6 -9 -11 -1 -21 12 -15 -5 -16 -26 -2 -7 4 -11 0 -10 -11
1 -11 -6 -16 -17 -15 -13 1 -17 -4 -12 -15 3 -9 3 -13 -1 -9 -4 4 -18 0 -32
-9 -18 -12 -22 -12 -17 -3 4 8 -3 3 -15 -11 -12 -14 -19 -20 -16 -13 4 6 2 15
-4 18 -6 4 -10 3 -9 -2 3 -19 -2 -34 -10 -28 -14 8 -61 -16 -54 -28 4 -6 -2
-8 -16 -4 -18 4 -20 3 -10 -9 10 -12 9 -13 -6 -8 -14 6 -16 4 -10 -7 8 -12 6
-12 -9 0 -14 12 -17 12 -14 1 2 -9 -9 -16 -27 -20 -16 -3 -29 -12 -27 -18 2
-10 -3 -10 -16 -3 -14 7 -19 6 -19 -4 0 -8 4 -12 8 -9 4 2 10 0 13 -5 8 -13
-19 -8 -36 7 -12 9 -15 9 -15 -3 0 -8 4 -12 9 -9 4 3 5 -2 2 -10 -5 -14 -8
-14 -21 -1 -18 19 -21 19 -19 -2 1 -11 -8 -17 -27 -18 -16 -1 -33 -8 -38 -16
-6 -10 -9 -10 -9 -1 0 6 -5 12 -11 12 -6 0 -9 -7 -5 -15 4 -10 -1 -14 -17 -12
-16 1 -22 -3 -21 -16 2 -18 1 -18 -19 0 -11 10 -17 12 -12 4 6 -11 3 -13 -13
-9 -14 4 -19 2 -16 -7 3 -7 0 -16 -7 -21 -7 -4 -10 -3 -6 2 3 6 -4 10 -16 11
-12 0 -16 -1 -9 -4 6 -3 12 -9 12 -14 0 -6 -5 -7 -10 -4 -6 4 -18 1 -27 -7
-14 -11 -16 -11 -9 2 6 12 4 11 -6 -1 -7 -9 -19 -14 -27 -11 -9 3 -11 0 -6 -9
5 -8 5 -11 0 -7 -4 4 -15 2 -23 -5 -10 -8 -13 -8 -9 -1 4 7 0 15 -9 18 -8 3
-13 2 -11 -2 3 -4 -1 -13 -9 -20 -8 -7 -14 -8 -14 -2 0 5 -5 10 -11 10 -6 0
-8 -7 -5 -17 4 -10 4 -14 0 -10 -4 4 -14 1 -22 -6 -13 -10 -15 -9 -10 4 5 13
2 16 -13 12 -10 -3 -19 -10 -19 -15 0 -5 4 -6 10 -3 6 3 7 -1 3 -10 -3 -9 -9
-13 -12 -8 -9 12 -44 16 -36 4 3 -7 0 -8 -9 -5 -10 4 -16 1 -16 -7 0 -12 -2
-12 -9 -1 -7 11 -9 11 -14 -1 -3 -8 -21 -14 -43 -15 -22 -1 -40 -6 -42 -12 -2
-5 -10 -10 -18 -10 -10 0 -12 5 -8 13 6 9 5 9 -8 0 -8 -7 -19 -9 -23 -5 -5 4
-6 2 -2 -3 3 -6 2 -17 -4 -25 -5 -9 -9 -10 -9 -4 0 7 -7 14 -14 17 -11 4 -13
1 -9 -10 4 -11 2 -14 -8 -11 -8 3 -13 11 -11 18 3 11 0 11 -12 0 -19 -15 -21
-24 -3 -14 9 5 9 4 0 -6 -10 -11 -15 -11 -29 1 -12 9 -15 10 -10 2 4 -8 2 -13
-4 -13 -6 0 -8 -5 -4 -12 4 -7 3 -8 -5 -4 -6 4 -9 11 -6 16 3 5 -4 7 -15 5
-11 -2 -20 0 -20 5 0 6 -9 2 -20 -8 -12 -9 -24 -16 -27 -14 -4 2 -10 -5 -14
-15 -7 -17 -8 -17 -8 0 -1 10 -6 15 -11 12 -6 -4 -7 -12 -3 -18 4 -7 0 -6 -10
2 -11 9 -17 10 -17 2 0 -6 -5 -11 -11 -11 -5 0 -7 5 -3 12 5 7 3 8 -7 2 -30
-19 -79 -32 -79 -21 0 6 -7 2 -15 -9 -10 -13 -13 -14 -10 -3 4 12 0 15 -17 13
-13 -1 -26 -3 -30 -3 -5 -1 -8 -6 -8 -12 0 -8 4 -8 14 0 11 9 16 9 22 0 4 -7
3 -9 -4 -5 -6 3 -13 2 -17 -3 -3 -6 -12 -8 -20 -5 -8 4 -12 11 -8 17 4 6 1 7
-6 3 -7 -5 -10 -15 -7 -25 4 -9 -3 -5 -14 9 -12 15 -18 18 -14 8 7 -20 -12
-25 -19 -5 -4 9 -6 9 -6 0 -1 -7 -8 -13 -17 -13 -9 0 -12 5 -8 12 4 7 3 8 -4
4 -7 -4 -12 -15 -13 -24 0 -11 -3 -12 -6 -4 -2 6 -16 12 -29 12 -14 0 -23 -4
-19 -9 3 -5 0 -13 -6 -17 -7 -4 -9 -3 -6 3 4 6 0 14 -9 17 -21 8 -24 8 -24 -5
0 -5 6 -7 13 -3 6 4 8 3 4 -1 -12 -14 -39 -15 -34 -1 3 7 -1 13 -9 13 -7 0
-11 -4 -8 -9 5 -8 -30 -13 -51 -8 -5 2 -21 2 -35 1 -14 -2 -30 -3 -37 -4 -7 0
-10 -4 -7 -9 3 -4 1 -8 -4 -8 -6 0 -13 7 -16 16 -5 13 -9 14 -21 4 -8 -6 -19
-9 -24 -6 -5 4 -13 1 -17 -5 -5 -8 -3 -9 6 -4 8 5 11 4 7 -2 -8 -12 -53 -9
-70 6 -9 7 -17 7 -27 -1 -12 -8 -12 -9 3 -4 10 3 15 2 12 -4 -7 -11 -41 -8
-52 5 -5 4 -2 5 6 0 10 -6 12 -4 6 5 -7 11 -10 10 -19 -1 -6 -8 -19 -15 -29
-15 -13 -1 -15 2 -8 10 7 8 5 12 -8 12 -13 0 -17 -5 -13 -16 4 -12 2 -12 -14
2 -11 9 -28 15 -39 14 -11 -2 -25 0 -30 5 -6 4 -17 3 -25 -3 -13 -8 -12 -9 2
-5 9 3 19 -1 22 -8 4 -11 0 -12 -17 -6 -12 4 -27 6 -34 4 -6 -2 -14 1 -18 6
-4 7 1 9 12 5 14 -5 15 -4 4 4 -8 6 -20 8 -28 5 -7 -3 -20 0 -27 6 -10 8 -16
9 -21 1 -3 -5 -18 -10 -33 -10 -21 0 -24 2 -12 10 8 5 10 10 4 10 -5 0 -15 -5
-22 -12 -9 -9 -12 -9 -12 0 0 7 -5 12 -11 12 -5 0 -7 -4 -4 -10 3 -5 1 -10 -4
-10 -6 0 -11 5 -11 10 0 6 -9 10 -21 10 -12 0 -17 -4 -14 -11 8 -11 -29 7 -57
29 -12 10 -18 11 -24 1 -4 -7 -3 -10 4 -5 6 3 13 2 17 -3 3 -6 -6 -8 -21 -5
-19 3 -24 1 -18 -8 5 -9 1 -8 -12 2 -29 22 -30 24 -12 17 10 -3 20 -1 24 6 4
7 4 9 -1 5 -4 -4 -14 -3 -21 3 -8 7 -14 7 -18 0 -4 -6 -15 -7 -30 -1 -16 6
-28 5 -36 -3 -10 -9 -11 -9 -6 1 4 7 1 12 -9 12 -17 0 -56 20 -66 34 -4 4 -23
8 -43 8 -23 0 -40 6 -47 16 -8 14 -9 12 -5 -8 5 -23 4 -23 -8 -7 -12 15 -14
16 -20 2 -3 -8 -2 -15 2 -15 4 0 8 -9 8 -20 0 -22 -12 -27 -19 -7 -4 9 -6 9
-6 -1 -1 -7 6 -15 15 -19 13 -5 13 -7 2 -14 -10 -7 -10 -9 0 -9 6 0 12 -5 12
-11 0 -5 -4 -8 -8 -5 -4 2 -8 -4 -8 -14 0 -10 3 -17 7 -14 9 5 6 -17 -4 -33
-4 -7 0 -16 10 -22 11 -6 13 -11 5 -11 -9 0 -12 -10 -8 -30 2 -17 0 -28 -5
-24 -5 3 -9 0 -9 -5 0 -6 6 -11 13 -11 8 0 7 -4 -3 -10 -9 -6 -11 -10 -3 -10
7 0 10 -7 7 -15 -4 -8 -11 -12 -18 -9 -6 3 -3 -1 7 -9 17 -14 24 -33 9 -23 -4
2 -8 -4 -8 -15 0 -10 4 -19 8 -19 5 0 4 -9 -2 -19 -8 -16 -6 -22 7 -30 11 -6
13 -11 5 -11 -9 0 -12 -10 -8 -30 2 -17 0 -28 -5 -24 -5 3 -9 0 -9 -5 0 -6 6
-11 13 -11 8 0 7 -4 -3 -10 -9 -6 -11 -10 -3 -10 7 0 10 -7 7 -15 -4 -8 -11
-12 -18 -9 -6 3 -3 -1 6 -9 18 -14 25 -33 10 -23 -4 2 -8 -4 -8 -15 0 -10 4
-19 8 -19 5 0 4 -8 -1 -19 -6 -10 -9 -20 -7 -22 9 -9 13 -78 5 -73 -5 3 -9 0
-9 -5 0 -6 6 -11 13 -11 9 0 8 -3 -2 -9 -11 -7 -11 -9 0 -14 12 -4 12 -7 0
-18 -12 -12 -13 -12 -6 0 6 10 4 12 -5 6 -10 -6 -10 -11 3 -20 19 -13 24 -30
6 -19 -7 4 -7 -1 1 -16 8 -15 8 -20 1 -16 -6 4 -11 2 -11 -3 0 -6 4 -11 8 -11
4 0 8 -9 9 -20 1 -14 -2 -18 -10 -13 -7 4 -4 -4 5 -19 16 -25 16 -27 -4 -44
-19 -17 -21 -17 -15 -2 3 9 1 19 -6 22 -7 3 -1 4 13 1 25 -5 25 -5 3 6 -20 10
-29 33 -24 61 0 5 -4 8 -11 8 -9 0 -9 3 0 12 7 7 12 17 12 23 0 5 -5 3 -10 -5
-9 -13 -10 -13 -11 0 -1 8 -1 19 0 24 1 5 -6 3 -15 -5 -10 -8 -15 -9 -12 -4 4
6 2 17 -3 25 -8 12 -9 11 -7 -4 2 -10 -3 -21 -11 -24 -9 -3 -11 0 -6 9 4 8 -2
3 -15 -9 -18 -19 -24 -21 -31 -11 -7 12 -10 11 -21 0 -11 -11 -11 -13 1 -6 10
6 12 4 7 -4 -5 -7 -10 -10 -13 -7 -3 3 -15 1 -26 -5 -15 -8 -18 -8 -12 1 5 8
3 11 -6 8 -8 -3 -13 -12 -11 -19 1 -9 -3 -7 -12 4 -9 12 -16 14 -21 7 -3 -5
-11 -7 -17 -4 -7 4 -8 2 -4 -5 4 -6 11 -9 16 -6 5 3 11 1 15 -4 6 -11 -27 -7
-47 5 -7 4 -8 3 -4 -4 9 -15 -6 -16 -21 -1 -8 8 -15 5 -26 -11 -9 -13 -16 -17
-19 -9 -3 8 -9 7 -21 -5 -9 -10 -17 -15 -17 -11 0 3 -11 -2 -25 -11 -21 -13
-28 -14 -41 -4 -13 12 -14 10 -10 -14 3 -15 1 -24 -5 -21 -5 4 -7 11 -4 16 4
5 -1 9 -10 9 -9 0 -13 -5 -9 -11 4 -8 0 -8 -15 0 -21 11 -27 5 -22 -22 1 -5
-3 -6 -9 -2 -6 3 -8 12 -4 18 3 7 -1 4 -9 -6 -8 -9 -17 -17 -20 -17 -4 0 -4 8
-1 17 4 13 3 15 -4 5 -5 -7 -15 -14 -23 -15 -23 -4 -40 -18 -34 -28 4 -5 0 -9
-7 -9 -8 0 -7 -4 4 -11 10 -5 15 -16 12 -24 -4 -8 -1 -15 6 -15 9 0 9 -4 -1
-17 -10 -11 -10 -14 -1 -9 7 4 12 1 12 -9 0 -9 5 -13 11 -9 8 5 8 1 0 -14 -7
-14 -8 -23 -1 -27 6 -4 8 -11 5 -16 -4 -5 -1 -9 5 -9 7 0 10 -6 7 -14 -3 -7
-1 -18 3 -22 5 -5 11 -18 13 -29 2 -11 9 -30 15 -42 9 -16 9 -23 2 -23 -6 0
-4 -7 4 -16 19 -19 21 -28 4 -18 -9 6 -9 3 1 -9 7 -9 11 -23 8 -32 -4 -8 -1
-17 5 -21 7 -5 8 -2 3 7 -6 11 -5 12 5 2 10 -10 11 -15 1 -27 -10 -12 -8 -14
11 -10 13 2 17 2 11 -2 -20 -9 -16 -37 4 -30 15 6 15 5 -1 -13 -13 -14 -14
-21 -5 -27 8 -5 10 -3 4 6 -5 9 -4 11 4 6 9 -6 9 -11 0 -22 -9 -11 -8 -15 4
-20 9 -3 13 -12 10 -21 -5 -12 -3 -14 6 -8 10 5 11 2 6 -14 -4 -13 -2 -21 6
-21 8 0 8 -5 -2 -17 -12 -14 -12 -16 0 -8 11 6 13 3 9 -13 -3 -12 -1 -23 5
-25 14 -4 17 -50 3 -60 -7 -6 -4 -7 7 -3 11 4 17 0 18 -12 1 -35 8 -55 21 -63
7 -4 9 -11 5 -15 -4 -4 -1 -14 6 -22 9 -13 9 -14 0 -8 -9 5 -11 2 -7 -8 3 -9
11 -13 16 -10 6 4 4 -4 -3 -17 -11 -21 -10 -22 3 -12 12 11 14 8 10 -19 -4
-24 -2 -29 9 -23 11 7 10 4 -1 -10 -12 -15 -12 -17 -1 -10 11 6 13 4 8 -8 -3
-10 -2 -17 4 -17 6 0 8 -4 4 -9 -3 -5 -1 -12 4 -16 6 -3 8 -12 5 -19 -4 -11 7
-14 46 -14 29 -1 48 3 45 9 -4 5 -1 9 4 9 6 0 11 -4 11 -10 0 -5 4 -10 10 -10
5 0 7 7 3 16 -5 14 -3 15 15 5 18 -10 21 -9 16 4 -4 8 -1 15 5 15 6 0 11 -5
11 -10 0 -6 10 -2 22 10 27 25 35 25 41 3 4 -17 5 -17 6 0 1 13 10 17 37 17
21 0 33 4 29 10 -9 14 9 12 24 -3 10 -10 11 -8 5 8 -7 18 -6 19 11 5 10 -8 16
-10 12 -3 -4 6 -3 14 3 18 5 3 10 1 10 -5 0 -6 5 -8 10 -5 6 4 7 11 4 17 -4 6
1 6 14 -1 15 -8 23 -8 28 1 4 7 3 8 -4 4 -8 -5 -10 -1 -5 10 5 15 7 15 15 0 8
-15 12 -15 37 3 16 11 31 17 35 13 4 -3 11 0 16 8 10 16 50 23 50 9 0 -5 5 -9
11 -9 5 0 7 5 4 10 -3 6 -2 10 4 10 5 0 11 -6 13 -12 3 -7 5 7 6 30 1 32 -1
41 -11 36 -7 -5 -6 0 3 11 8 10 10 16 4 12 -7 -4 -15 0 -18 9 -4 10 -2 13 7 7
6 -4 4 6 -7 21 -10 16 -13 25 -7 22 8 -5 8 1 -1 19 -9 19 -14 22 -21 13 -6 -9
-7 -8 -3 5 3 9 3 24 0 32 -6 14 -8 13 -21 -2 -8 -10 -12 -13 -9 -7 3 7 -1 14
-9 17 -9 4 -12 1 -8 -9 4 -10 0 -12 -13 -7 -10 4 -15 2 -11 -4 3 -5 0 -10 -8
-10 -8 0 -12 4 -9 9 3 4 0 8 -5 8 -6 0 -11 -6 -11 -12 0 -7 -11 -14 -25 -14
-16 -1 -22 2 -18 10 4 7 1 6 -9 -1 -8 -7 -17 -10 -21 -7 -3 3 -8 -4 -12 -17
-6 -17 -9 -19 -16 -8 -7 12 -9 11 -10 -1 0 -10 -3 -8 -9 5 -7 17 -9 17 -9 3
-1 -11 -6 -15 -15 -12 -8 3 -17 0 -22 -7 -5 -8 -3 -10 6 -4 8 5 11 4 7 -2 -4
-6 -26 -10 -50 -9 -36 1 -43 -2 -39 -14 3 -10 -2 -8 -15 5 -11 11 -17 22 -14
25 3 3 7 11 9 19 2 11 0 12 -11 3 -12 -10 -13 -8 -9 13 3 16 0 25 -9 25 -10 0
-10 3 -1 12 15 15 16 31 0 22 -7 -5 -9 -2 -5 9 4 12 2 14 -11 10 -14 -6 -15
-4 -4 9 10 13 10 17 0 20 -9 3 -3 14 17 31 17 15 36 24 44 22 8 -4 11 0 8 9
-4 10 -1 13 8 9 8 -3 12 -9 9 -15 -3 -5 3 -4 15 4 12 7 21 17 21 22 0 4 8 2
17 -5 13 -11 15 -11 9 -1 -6 10 -3 13 12 10 12 -2 28 6 37 17 9 11 14 14 10 8
-4 -9 -1 -11 9 -7 10 4 16 1 16 -7 0 -7 3 -9 6 -6 4 4 1 14 -7 23 -13 16 -12
16 9 5 19 -10 22 -9 23 6 0 11 3 13 6 5 4 -10 8 -10 21 0 9 7 13 8 9 2 -3 -6
0 -11 7 -11 8 0 11 8 8 21 -5 18 -3 19 10 8 14 -11 16 -10 11 7 -3 12 -9 21
-14 21 -5 0 -9 5 -9 11 0 5 4 8 8 5 5 -3 9 1 9 9 0 8 -4 12 -9 9 -4 -3 -8 2
-8 11 0 10 -5 14 -12 9 -10 -5 -10 -4 -2 5 6 7 9 23 6 37 -3 20 -7 23 -14 12
-6 -9 -7 -6 -3 10 4 15 2 22 -7 22 -10 0 -9 3 2 10 13 8 12 10 -3 10 -12 0
-16 4 -11 13 5 7 0 6 -11 -3 -10 -8 -16 -10 -12 -3 4 6 2 15 -4 19 -7 4 -9 3
-6 -3 4 -6 0 -19 -8 -29 -9 -10 -14 -14 -13 -8 2 7 -1 11 -7 11 -5 -1 -9 -8
-7 -17 2 -11 0 -11 -8 3 -8 13 -16 15 -29 7 -10 -5 -21 -6 -25 -2 -4 3 -4 -2
0 -13 7 -17 6 -18 -8 -7 -12 9 -18 10 -23 2 -4 -6 -13 -9 -21 -6 -17 7 -19
-10 -1 -18 6 -3 0 -3 -15 -1 -15 2 -32 6 -38 10 -5 3 -7 0 -4 -8 7 -19 -12
-32 -22 -16 -5 8 -3 9 6 4 9 -5 11 -4 6 4 -6 8 -12 9 -20 2 -7 -6 -17 -7 -21
-3 -5 4 -5 2 -2 -4 4 -7 -3 -14 -19 -17 -19 -3 -24 -1 -19 11 5 13 3 13 -12 1
-9 -8 -14 -9 -10 -2 4 6 2 15 -5 19 -8 5 -6 10 8 15 15 6 16 8 3 8 -9 1 -20 8
-23 17 -3 8 -2 13 3 9 13 -7 8 20 -7 37 -6 8 -9 18 -5 21 3 4 0 7 -8 7 -11 0
-11 2 1 10 8 5 10 10 4 10 -7 0 -15 7 -18 16 -4 10 -2 13 6 8 8 -5 9 -2 4 11
-5 15 -4 16 9 5 13 -11 14 -10 10 3 -8 18 11 32 21 16 5 -8 3 -9 -6 -4 -9 6
-11 4 -5 -5 6 -10 12 -8 24 8 12 16 20 19 31 12 11 -7 19 -4 31 12 12 16 18
18 24 8 6 -9 4 -11 -5 -5 -9 5 -11 4 -6 -3 5 -9 14 -7 31 4 14 9 32 14 40 10
9 -3 13 -2 10 3 -3 5 -1 12 5 16 5 3 10 1 10 -5 0 -6 5 -8 10 -5 6 4 8 10 6
14 -3 4 9 5 26 3 24 -4 29 -2 23 9 -7 11 -4 10 10 -1 11 -9 16 -10 11 -3 -5 9
0 13 13 13 12 0 21 5 21 11 0 5 -4 8 -9 4 -5 -3 -12 -1 -15 4 -3 5 7 17 22 27
22 15 25 15 14 1 -13 -16 -8 -42 7 -33 4 3 8 -14 10 -37 1 -23 7 -45 13 -48 6
-4 8 -16 6 -27 -4 -16 -2 -19 10 -15 11 5 14 2 9 -10 -4 -11 -1 -17 8 -17 8 0
14 -3 14 -7 -4 -23 2 -43 11 -38 6 3 10 -3 10 -14 0 -12 6 -21 14 -21 15 0 29
-27 21 -40 -3 -5 0 -12 6 -16 7 -4 9 -3 5 4 -3 6 -2 13 4 17 5 3 10 1 10 -5 0
-6 7 -18 15 -27 8 -8 13 -18 11 -22 -3 -4 1 -8 9 -8 8 0 12 4 9 9 -3 4 2 5 10
2 9 -3 13 -10 10 -15 -3 -5 4 -9 15 -9 19 0 27 -16 21 -45 -1 -5 8 -1 19 9 21
19 21 19 22 0 0 -10 3 -14 6 -7 3 10 7 10 18 0 7 -7 10 -16 7 -22 -3 -5 2 -4
11 4 11 8 17 9 17 3 0 -7 7 -9 17 -5 10 4 14 2 9 -5 -3 -6 -2 -13 4 -17 5 -3
10 1 10 9 0 9 4 16 10 16 5 0 6 -8 3 -18 -6 -15 -5 -16 12 -2 10 8 16 10 12 3
-4 -6 -2 -15 3 -18 7 -5 5 -12 -7 -21 -14 -11 -15 -13 -3 -14 12 0 10 -4 -4
-15 -14 -11 -16 -15 -5 -15 12 0 12 -2 0 -9 -7 -5 -11 -13 -8 -17 6 -10 -18
-35 -27 -28 -3 2 -2 -2 4 -8 14 -16 13 -31 -2 -22 -8 5 -9 2 -5 -9 3 -10 2
-17 -4 -17 -6 0 -7 -4 -4 -10 3 -5 2 -10 -4 -10 -6 0 -7 -7 -4 -17 5 -11 3
-14 -6 -8 -10 5 -11 2 -7 -13 4 -11 2 -23 -3 -26 -6 -4 -7 -14 -4 -23 4 -11 3
-14 -5 -9 -7 4 -12 2 -12 -4 0 -6 -6 -8 -12 -4 -7 4 -4 -3 7 -16 11 -13 14
-20 8 -16 -9 5 -13 0 -13 -13 0 -12 -5 -21 -11 -21 -5 0 -7 5 -3 12 4 7 3 8
-5 4 -6 -4 -8 -13 -4 -19 4 -7 8 -15 8 -19 0 -3 4 -10 9 -15 5 -4 6 -3 3 3 -4
7 0 17 8 24 13 11 14 10 10 -2 -4 -9 0 -15 9 -15 8 0 12 5 9 10 -4 7 1 8 12 3
14 -5 15 -4 7 7 -8 10 -6 13 9 14 11 1 17 -2 14 -7 -3 -6 1 -7 9 -4 9 3 16 13
16 22 0 13 3 12 16 -4 8 -10 13 -14 10 -8 -3 7 1 14 8 17 8 3 17 1 20 -6 2 -7
5 -2 5 11 1 12 6 22 12 22 6 0 8 -8 5 -17 -5 -15 -4 -15 9 1 11 14 15 16 15 5
1 -10 3 -9 11 4 6 9 14 15 20 12 5 -4 9 -1 9 6 0 7 3 10 6 7 3 -4 0 -16 -6
-29 -10 -19 -10 -24 4 -34 9 -7 16 -22 16 -34 0 -11 5 -21 11 -21 7 0 9 -9 6
-21 -3 -13 -1 -19 6 -16 7 2 20 -12 30 -32 9 -20 15 -28 13 -18 -8 28 3 19 19
-15 8 -18 13 -25 10 -15 -5 18 11 25 17 6 2 -5 10 -11 18 -13 32 -6 50 -19 43
-30 -4 -6 1 -5 10 3 13 10 17 10 17 1 0 -10 3 -10 15 0 12 10 19 10 27 2 14
-14 32 -16 24 -4 -3 5 1 9 9 9 8 0 11 -5 8 -10 -3 -5 0 -8 8 -5 8 3 14 10 14
15 0 6 4 15 9 20 5 4 7 3 3 -2 -3 -6 -2 -17 4 -25 7 -13 9 -12 9 1 0 9 7 20
16 23 15 6 15 4 3 -11 -13 -16 -12 -17 3 -5 9 8 22 11 27 8 5 -4 12 -2 15 3 4
5 1 13 -5 17 -8 5 -9 3 -4 -6 6 -9 4 -11 -4 -6 -7 5 -9 11 -6 15 7 6 13 8 44
10 12 1 18 8 17 24 0 12 4 21 9 20 6 0 16 5 23 13 10 11 10 14 0 15 -7 0 -2 5
12 10 20 8 22 12 10 19 -11 7 -12 10 -2 10 7 0 10 4 7 10 -3 5 -1 10 6 10 9 0
9 3 0 14 -9 11 -9 16 0 22 8 5 10 3 4 -7 -6 -11 -5 -12 5 -2 11 10 11 15 -1
29 -11 14 -11 16 -1 10 10 -6 13 -2 10 15 -2 13 4 30 12 37 13 11 13 11 -1 6
-10 -3 -20 0 -25 7 -4 8 -3 10 4 5 8 -5 12 2 12 19 0 18 4 24 13 19 6 -4 1 5
-13 20 -15 17 -19 25 -9 21 13 -5 15 -1 11 20 -3 17 1 30 9 36 8 5 9 9 3 9 -7
0 -14 10 -17 23 -6 21 -5 21 8 3 13 -18 14 -17 11 12 -3 19 1 36 10 43 8 6 14
8 14 3 0 -5 4 -4 8 3 6 9 11 6 21 -8 7 -12 8 -19 3 -15 -5 3 -9 -1 -9 -8 0 -8
6 -12 14 -9 9 4 11 0 7 -11 -3 -9 -2 -16 4 -16 5 0 8 -11 7 -25 -2 -14 1 -23
7 -19 5 3 8 -2 6 -12 -2 -11 2 -18 9 -17 8 2 10 -4 6 -14 -4 -11 -3 -14 6 -9
8 5 12 3 10 -5 -4 -33 2 -69 12 -69 5 0 7 5 3 12 -4 6 -3 8 3 5 6 -4 8 -17 6
-31 -3 -13 0 -27 6 -30 5 -4 7 -14 4 -23 -5 -12 -3 -14 7 -8 10 6 12 4 7 -8
-3 -10 -2 -17 3 -17 6 0 10 -9 10 -20 0 -19 12 -26 35 -20 6 2 18 2 28 2 9 0
17 4 17 10 0 6 9 8 20 5 11 -3 18 -1 15 3 -3 5 -1 11 5 15 5 3 10 1 10 -5 0
-6 5 -8 10 -5 6 4 7 12 3 18 -5 9 -3 9 8 0 11 -9 18 -8 31 1 10 7 14 17 10 22
-4 4 0 3 9 -4 13 -10 19 -9 30 5 8 9 9 14 3 10 -7 -4 -15 0 -18 9 -5 12 -2 15
11 10 13 -4 11 0 -6 14 -14 12 -18 20 -10 20 11 0 11 2 -1 9 -8 6 -14 22 -15
38 0 18 -5 28 -15 27 -16 -1 -20 32 -6 54 5 8 2 10 -9 6 -11 -5 -14 -2 -8 12
5 13 3 15 -8 9 -11 -7 -11 -5 1 10 8 10 10 16 4 12 -7 -4 -15 0 -18 9 -3 8 -2
12 3 9 5 -3 13 -1 16 5 4 6 3 10 -2 9 -27 -5 -35 2 -29 27 4 16 3 23 -3 20 -5
-4 -12 -2 -16 3 -3 6 3 8 15 6 11 -2 20 1 20 7 0 6 10 3 22 -8 12 -10 18 -13
14 -6 -5 8 -1 12 11 12 11 0 24 5 30 11 8 8 13 8 18 0 3 -6 1 -10 -6 -9 -6 2
-13 -1 -15 -7 -2 -5 7 -10 20 -10 13 0 23 2 21 5 -2 3 8 11 21 17 21 10 27 9
36 -7 11 -17 13 -17 23 -3 10 13 14 13 20 3 5 -9 4 -11 -3 -6 -7 4 -12 2 -12
-3 0 -14 13 -14 28 1 9 9 12 9 13 -2 1 -8 5 -4 9 10 l8 25 1 -25 c1 -20 3 -22
11 -10 6 10 10 11 10 3 0 -7 5 -13 11 -13 5 0 7 5 4 10 -3 6 1 10 10 10 10 0
13 -5 9 -13 -9 -13 26 11 38 28 5 7 8 6 8 0 0 -6 -6 -17 -12 -23 -10 -10 -7
-12 12 -9 16 3 24 11 24 21 -1 9 2 13 7 10 5 -3 9 -12 9 -20 0 -8 5 -14 11
-14 5 0 7 6 3 13 -5 7 0 6 11 -3 11 -9 16 -10 11 -2 -4 7 -1 12 8 12 9 0 16
-5 16 -12 0 -6 6 -4 13 7 11 14 16 15 22 5 5 -9 4 -11 -3 -6 -7 4 -12 2 -12
-3 0 -14 17 -14 26 0 4 8 9 7 15 -2 5 -9 9 -10 9 -2 0 6 13 10 31 9 17 -1 41
3 55 10 17 9 23 10 21 1 -1 -7 10 -11 31 -10 18 1 30 -2 28 -6 -3 -4 1 -8 9
-8 8 0 12 4 9 8 -2 4 5 7 16 6 11 -1 20 -5 20 -10 0 -4 5 -5 10 -2 6 4 8 10 6
14 -3 3 4 7 14 7 14 0 16 -3 8 -13 -17 -21 6 -15 30 7 23 21 32 14 10 -8 -7
-7 -8 -12 -2 -12 6 0 14 3 18 7 13 13 49 13 64 1 10 -9 13 -9 9 -1 -11 18 16
22 36 5 14 -13 17 -13 12 -1 -4 10 2 14 19 14 13 0 23 -2 21 -5 -2 -3 18 -5
43 -4 26 1 53 -3 61 -10 10 -7 13 -7 8 0 -3 6 0 11 8 11 8 0 12 -8 10 -20 -3
-12 0 -17 9 -14 15 6 18 -22 4 -40 -6 -7 -4 -14 3 -19 8 -5 9 -3 4 7 -8 12 -6
12 8 0 18 -14 24 -26 8 -17 -5 3 -11 -3 -14 -13 -4 -15 -1 -18 12 -14 13 5 12
2 -3 -16 -13 -15 -15 -20 -5 -16 11 4 14 -4 14 -39 0 -24 -3 -42 -7 -39 -13 7
-9 -12 5 -26 9 -11 9 -13 0 -7 -7 4 -13 2 -13 -3 0 -6 6 -11 13 -11 8 0 7 -4
-3 -10 -13 -9 -13 -11 0 -20 13 -9 13 -11 0 -19 -12 -9 -12 -11 2 -16 10 -4
14 -13 11 -22 -4 -9 1 -19 10 -25 13 -7 14 -14 6 -35 -8 -23 -8 -24 6 -13 13
11 15 9 15 -10 0 -14 5 -20 14 -17 9 4 12 -2 10 -19 -1 -13 2 -22 7 -18 5 3 6
11 2 17 -4 7 0 6 10 -2 9 -7 14 -17 11 -22 -3 -5 5 -9 18 -9 18 0 20 -2 8 -10
-8 -5 -10 -10 -5 -11 6 0 21 -2 34 -5 19 -3 22 -1 17 13 -6 17 -5 17 7 1 8
-10 17 -15 21 -11 4 4 4 -1 0 -12 -7 -18 -6 -18 9 -6 9 7 17 9 17 4 0 -5 7
-10 15 -10 10 0 14 6 10 16 -3 11 0 10 10 -3 11 -14 15 -16 15 -5 0 10 2 11 8
2 11 -17 44 -9 53 13 4 10 8 14 8 7 1 -9 20 -11 41 -3 3 1 8 2 12 1 4 0 4 7 1
16 -5 12 -3 14 7 8 10 -6 12 -4 6 10 -6 16 -4 16 11 4 14 -12 16 -12 8 0 -6
11 -4 13 8 8 11 -4 14 -2 10 9 -4 10 2 17 17 21 16 4 18 8 8 14 -10 7 -9 9 4
9 10 0 15 7 13 18 -1 9 9 30 24 47 14 16 18 23 8 16 -15 -12 -17 -12 -10 5 4
10 14 25 22 32 9 8 11 11 4 8 -6 -4 -14 -2 -18 4 -3 5 -2 10 4 10 5 0 8 12 5
26 -3 14 -1 23 3 21 7 -5 10 79 3 93 -1 3 -1 10 0 15 1 6 3 21 5 35 4 47 5 50
17 47 8 -1 12 9 12 26 -1 20 3 27 15 25 9 -2 15 3 13 11 -3 12 -1 12 14 0 15
-12 17 -12 9 0 -6 11 -3 13 13 9 14 -4 20 -2 15 5 -4 7 0 8 11 4 11 -5 15 -3
10 4 -5 8 3 10 24 7 17 -2 29 -1 26 4 -5 8 10 12 34 9 7 -1 11 4 10 11 -2 7 3
12 10 11 6 -2 12 1 12 6 0 5 8 8 18 6 9 -1 25 5 36 14 10 9 20 15 22 14 12 -8
15 -1 5 10 -8 11 -6 13 12 13 15 -1 22 4 21 17 -1 10 0 16 4 13 3 -3 11 2 19
12 12 16 13 16 7 0 -10 -29 5 -21 16 8 7 18 15 24 27 20 13 -5 14 -4 4 8 -9
11 -9 16 0 22 8 5 10 3 5 -7 -4 -8 -1 -6 7 3 8 10 18 14 23 10 4 -4 2 2 -6 12
-11 14 -11 18 -2 12 9 -5 15 -1 19 13 3 12 10 21 15 21 6 0 5 7 -2 16 -11 12
-11 15 1 12 9 -2 13 4 11 16 -2 10 1 16 6 12 8 -5 12 7 13 47 0 9 4 15 9 12
10 -6 8 15 -3 32 -4 6 -2 15 4 19 8 5 9 3 4 -7 -5 -8 -4 -10 0 -6 11 10 16 39
6 32 -4 -2 -8 2 -8 9 0 9 7 12 16 8 13 -5 14 -3 4 10 -7 8 -10 18 -6 21 3 4 7
26 7 49 1 24 5 49 10 57 6 9 5 12 -1 8 -6 -4 -13 2 -16 13 -3 11 -2 22 2 25 4
2 7 49 6 105 -1 66 2 100 9 100 8 0 8 2 0 8 -14 9 -14 112 0 112 7 0 7 3 0 8
-7 4 -11 36 -10 80 l1 73 29 -7 c17 -4 26 -2 23 3 -4 5 0 10 8 10 8 0 12 -4 9
-9 -5 -8 10 -12 35 -8 8 1 18 -4 22 -12 7 -10 9 -8 10 7 l0 20 9 -20 c5 -11 9
-15 9 -9 1 7 8 15 17 18 12 5 15 2 10 -11 -5 -16 -4 -16 6 -3 7 9 23 15 35 14
12 -1 24 5 28 14 4 12 8 12 22 1 12 -10 14 -10 9 -1 -4 7 -2 12 4 12 6 0 8 5
4 12 -5 7 -3 8 7 2 21 -13 40 -14 32 -1 -4 7 0 8 12 3 16 -6 16 -4 4 11 -7 10
-9 15 -5 11 5 -4 15 0 23 10 8 9 12 11 8 5 -3 -7 -1 -13 4 -13 11 0 15 14 11
39 -1 11 2 10 15 -3 21 -21 24 -20 18 4 -3 12 0 20 6 20 7 0 9 -5 5 -12 -4 -7
-3 -8 4 -4 7 4 12 14 12 21 0 8 9 19 20 25 11 6 20 20 20 31 0 13 4 18 12 13
8 -5 9 0 6 14 -4 12 -3 20 2 17 4 -3 13 2 20 10 11 13 10 14 -4 9 -12 -5 -15
-2 -10 10 3 9 10 13 15 10 9 -5 14 12 9 31 -2 6 -2 20 -2 32 1 14 -7 27 -19
34 -15 8 -19 8 -15 0 4 -6 0 -11 -9 -11 -9 0 -14 4 -11 9 7 10 -44 9 -61 -2
-8 -5 -13 -3 -13 5 0 11 -2 11 -9 0 -4 -7 -17 -15 -27 -16 -12 -2 -19 -11 -18
-24 0 -12 -5 -18 -12 -15 -6 2 -15 -1 -20 -8 -5 -8 -3 -10 7 -4 11 7 12 6 2
-7 -7 -8 -9 -19 -5 -23 4 -5 1 -5 -5 -1 -7 4 -13 2 -13 -4 0 -6 -5 -8 -12 -4
-6 4 -8 3 -4 -4 9 -14 -23 -44 -41 -38 -8 3 -11 2 -8 -3 3 -5 1 -12 -5 -16 -5
-3 -10 -1 -10 4 0 6 -5 11 -11 11 -5 0 -7 -5 -3 -11 5 -8 -1 -10 -20 -7 -21 4
-26 2 -22 -9 3 -8 1 -11 -4 -8 -6 3 -10 14 -11 23 0 12 -3 11 -9 -5 -5 -13
-13 -23 -16 -23 -4 0 -5 3 -1 6 3 4 0 13 -8 20 -17 17 -29 18 -19 2 4 -7 3 -8
-4 -4 -7 4 -12 14 -12 23 0 9 -6 13 -15 10 -8 -4 -17 -1 -21 5 -5 7 -2 8 6 3
9 -6 10 -2 5 15 -4 14 -3 20 3 16 5 -3 12 1 15 8 3 8 16 20 28 26 17 10 20 9
14 -1 -6 -8 -4 -10 4 -5 7 5 10 14 7 22 -7 19 4 18 21 -3 8 -10 12 -12 8 -5
-3 6 -1 12 4 12 6 0 11 8 11 18 0 14 2 15 10 2 8 -12 10 -12 16 3 3 9 10 17
16 17 5 0 6 -4 3 -10 -10 -16 1 -11 16 7 12 14 12 16 0 8 -10 -5 -12 -4 -7 4
6 9 11 9 24 -1 9 -7 13 -8 10 -3 -4 6 1 19 9 30 13 16 15 17 10 3 -8 -22 2
-23 17 -3 6 8 21 16 33 18 12 2 26 7 30 12 5 4 3 5 -4 1 -6 -3 -14 -2 -17 3
-3 5 7 8 24 7 25 -2 27 0 17 13 -8 10 -9 13 0 8 6 -4 14 -1 16 5 4 10 6 10 6
0 1 -10 4 -10 15 0 8 7 12 16 10 19 -2 3 3 6 11 6 8 0 12 -4 9 -8 -2 -4 -1
-10 4 -13 13 -8 12 36 0 54 -10 12 -10 13 2 3 8 -7 19 -13 25 -13 5 1 -1 10
-14 20 -14 12 -18 20 -10 20 9 1 8 4 -4 11 -9 6 -14 15 -11 21 5 8 1 9 -10 5
-10 -4 -15 -3 -11 3 3 6 1 10 -5 10 -6 0 -9 4 -5 9 7 12 -29 33 -41 23 -5 -4
-2 2 6 12 10 13 10 17 3 12 -8 -4 -13 -2 -13 6 0 9 -3 9 -10 -2 -8 -13 -10
-13 -10 2 0 9 -5 20 -12 24 -7 4 -8 3 -4 -4 10 -17 -3 -15 -20 3 -9 8 -12 19
-9 25 3 5 1 10 -4 10 -6 0 -11 -8 -11 -17 -1 -17 -1 -17 -11 0 -5 9 -15 17
-20 17 -6 0 -7 -6 -3 -12 5 -10 4 -10 -6 -1 -7 6 -19 9 -26 6 -9 -3 -14 2 -14
13 0 15 -2 16 -9 5 -7 -11 -9 -11 -14 0 -3 9 -6 9 -6 2 -1 -8 -10 -9 -31 -3
-17 5 -29 6 -26 2 2 -4 0 -16 -5 -27 -7 -19 -8 -19 -8 2 -1 12 -6 25 -13 29
-7 4 -8 3 -4 -4 4 -7 -3 -14 -19 -18 -13 -3 -22 -10 -19 -15 9 -15 -3 -10 -22
8 -16 16 -16 16 -9 -7 6 -21 5 -23 -6 -12 -17 16 -20 141 -5 161 8 11 8 13 0
8 -15 -9 -14 95 1 105 7 5 7 8 0 8 -13 0 -14 485 -1 497 5 5 6 2 1 -6 -6 -10
-4 -12 4 -7 7 5 10 14 7 21 -3 9 2 12 15 10 18 -4 19 -2 7 12 -9 12 -9 15 0 9
7 -4 12 -2 12 4 0 6 5 8 11 5 6 -4 13 2 16 13 2 11 13 22 24 25 14 4 17 10 12
24 -6 16 -5 17 12 3 17 -14 18 -13 12 3 -6 15 3 22 25 18 4 0 5 6 2 14 -4 9 0
15 10 15 17 0 39 34 29 44 -4 4 3 9 15 13 12 3 22 12 22 19 0 8 6 14 14 14 8
0 17 12 20 26 5 18 11 24 23 20 12 -5 14 -1 10 14 -5 18 -3 19 11 8 9 -7 13
-8 9 -2 -4 7 0 14 8 18 8 3 15 13 15 21 0 9 4 14 9 10 5 -3 13 0 17 6 4 8 3 9
-4 5 -7 -4 -12 -2 -12 3 0 6 6 11 14 11 9 0 13 7 11 19 -3 15 1 18 13 14 9 -3
14 -3 10 1 -4 5 5 19 19 32 14 13 23 24 19 24 -4 0 -2 9 4 20 6 11 18 20 27
20 13 0 13 3 3 16 -11 12 -11 15 1 12 8 -2 13 4 13 14 -1 10 1 17 5 16 3 0 13
0 21 1 13 1 13 2 0 11 -10 6 -11 10 -2 10 6 0 12 9 12 20 0 12 5 17 14 14 15
-6 29 10 33 39 2 12 -1 16 -9 11 -9 -5 -9 -2 1 9 15 18 26 23 16 7 -3 -5 -1
-10 4 -10 6 0 11 9 11 20 0 10 8 24 18 29 15 9 15 12 2 21 -13 9 -13 10 0 10
8 1 26 15 40 33 14 17 19 28 13 24 -19 -12 -16 0 5 21 16 16 62 26 60 13 -2
-20 3 -31 12 -26 14 9 12 -8 -2 -24 -9 -10 -9 -12 -1 -7 6 3 14 2 18 -4 4 -6
12 -7 18 -3 8 4 8 1 -1 -9 -11 -13 -9 -19 13 -36 14 -11 25 -25 25 -32 0 -6 5
-8 12 -4 7 4 8 3 4 -5 -4 -6 0 -14 9 -17 13 -6 14 -8 3 -15 -10 -7 -8 -11 9
-15 13 -4 20 -11 17 -16 -4 -6 3 -5 14 1 19 10 20 9 17 -11 -4 -23 -4 -23 11
-3 8 11 19 21 24 21 6 1 13 2 16 3 4 0 1 8 -6 16 -11 13 -10 14 4 9 12 -5 15
-2 9 12 -5 13 -3 15 7 9 8 -5 3 7 -10 25 -22 30 -22 33 -4 26 14 -5 16 -4 7 5
-6 6 -9 18 -6 25 3 8 1 14 -4 14 -5 0 -9 9 -10 20 -1 13 2 18 10 13 7 -4 7 -1
-1 10 -8 9 -11 21 -8 26 4 5 1 13 -5 17 -8 5 -9 3 -4 -6 5 -8 4 -11 -3 -6 -7
4 -8 15 -3 29 7 16 4 28 -13 47 -11 13 -14 19 -4 12 12 -10 18 -10 24 -1 4 7
3 9 -3 6 -11 -7 -28 21 -24 38 2 6 4 15 5 22 1 7 6 16 11 20 4 4 5 1 1 -7 -5
-9 -2 -8 7 2 8 10 18 14 23 10 4 -4 2 2 -6 12 -8 11 -10 17 -4 13 6 -4 19 2
29 13 10 11 22 17 28 13 7 -4 8 0 4 11 -6 14 -3 17 9 12 12 -5 15 -2 10 10 -5
14 -4 15 9 4 13 -11 14 -10 9 5 -5 13 -4 16 4 11 11 -6 17 5 13 26 0 5 2 7 7
7 19 -3 33 2 27 11 -3 6 1 10 9 10 9 0 16 5 16 11 0 5 -5 7 -12 3 -7 -4 -8 -3
-4 4 4 6 14 8 23 5 12 -5 15 -2 10 10 -3 9 -3 16 1 16 18 -3 33 2 28 9 -2 4 7
12 20 19 13 6 22 7 18 2 -3 -5 0 -9 6 -9 7 0 10 -6 7 -12 -6 -19 11 -48 29
-48 11 0 14 -6 9 -22 -7 -22 -7 -22 8 -3 14 18 15 18 12 -8 -3 -21 1 -27 15
-27 13 0 17 -5 13 -20 -3 -12 0 -20 6 -20 7 0 9 5 5 12 -4 7 -3 8 5 4 9 -6 9
-12 -1 -24 -7 -10 -8 -14 -4 -10 5 5 16 -1 23 -12 8 -12 20 -17 26 -13 8 4 7
1 -1 -9 -11 -14 -10 -18 6 -27 11 -6 22 -7 26 -4 12 12 6 -13 -6 -26 -11 -11
-9 -12 8 -7 18 6 21 3 19 -18 -2 -18 1 -23 11 -19 8 3 14 -1 14 -11 0 -9 5
-16 10 -16 6 0 10 -6 10 -13 0 -19 39 -59 51 -52 5 4 9 -1 9 -10 0 -9 -4 -13
-10 -10 -5 3 -10 1 -10 -6 0 -6 8 -9 20 -6 11 3 18 1 15 -3 -7 -11 5 -41 15
-35 11 7 51 -31 42 -40 -4 -5 -1 -5 6 -1 7 4 10 12 7 17 -4 5 -1 9 4 9 6 0 11
-8 11 -17 1 -17 1 -17 11 0 9 15 13 16 27 5 14 -11 15 -10 9 6 -7 17 -6 17 10
5 11 -9 14 -10 9 -1 -4 7 -2 12 4 12 6 0 8 5 5 10 -4 6 -1 9 7 8 7 -2 12 5 11
15 -1 13 4 17 15 12 14 -5 15 -4 5 6 -15 16 -17 43 -3 34 6 -4 1 10 -10 30
-13 23 -18 45 -14 57 5 16 3 19 -7 12 -10 -6 -10 -3 1 11 8 10 10 16 4 12 -6
-3 -16 5 -23 19 -6 14 -7 23 -2 19 5 -3 12 -1 16 5 3 5 -1 10 -10 10 -12 0
-15 6 -10 21 5 16 4 19 -5 14 -10 -6 -12 -1 -8 19 4 19 1 26 -11 26 -14 0 -14
2 -1 10 13 8 12 10 -3 10 -14 0 -16 5 -11 25 3 14 2 25 -2 25 -5 0 -10 11 -10
25 -1 15 2 22 9 18 6 -3 7 -1 3 5 -4 6 -14 8 -24 5 -14 -5 -15 -3 -5 7 10 11
9 16 -5 27 -9 8 -11 11 -3 7 9 -4 12 -2 9 7 -3 8 -9 13 -14 12 -5 -1 -10 15
-12 35 -5 67 -7 77 -21 88 -8 7 -12 20 -8 33 4 18 2 21 -10 17 -13 -5 -14 -4
-3 9 10 12 10 15 0 15 -10 0 -10 3 0 15 11 13 10 14 -6 8 -17 -6 -17 -5 -5 10
16 20 1 23 -18 5 -11 -11 -11 -9 0 9 10 18 10 24 0 37 -8 9 -9 16 -4 16 5 0 9
9 9 20 0 11 -4 20 -8 20 -4 0 -8 -5 -8 -12 0 -6 -3 -9 -6 -6 -3 4 0 17 7 30 7
12 12 27 11 31 -1 5 2 6 8 2 18 -11 31 5 20 25 -8 16 -7 18 10 15 11 -2 23 1
26 7 5 7 2 8 -6 3 -8 -5 -11 -3 -8 6 3 8 11 13 18 11 11 -3 11 0 0 12 -10 13
-10 16 4 16 15 0 20 14 19 48 -1 6 3 12 7 12 5 0 11 -6 13 -12 3 -7 6 1 6 19
1 17 6 35 13 39 7 5 8 2 3 -7 -7 -12 -5 -12 6 -1 12 11 12 14 -1 22 -10 7 -11
10 -2 10 6 0 12 9 12 21 0 11 4 18 9 15 5 -4 8 5 6 19 -1 17 3 25 14 26 11 0
12 2 3 6 -10 4 -9 10 5 26 10 11 12 17 6 13 -7 -4 -13 -3 -13 1 0 5 6 15 13
22 10 11 10 13 0 7 -7 -4 -13 -2 -13 3 0 6 4 11 9 11 12 0 -3 66 -19 85 -7 8
-9 15 -5 15 4 0 14 -8 22 -17 13 -16 13 -16 3 5 -6 13 -18 26 -26 29 -8 3 -14
12 -14 20 0 8 -4 11 -10 8 -5 -3 -10 -2 -10 4 0 5 5 11 12 13 8 3 6 7 -5 11
-9 3 -19 1 -23 -5 -5 -7 -2 -8 6 -3 8 5 11 4 6 -3 -4 -6 -13 -9 -21 -6 -8 4
-13 10 -10 14 3 5 0 12 -6 16 -8 5 -9 3 -4 -6 6 -10 4 -12 -8 -7 -10 3 -17 2
-17 -4 0 -6 -7 -3 -16 5 -19 19 -31 21 -16 3z m-2438 -227 c0 -5 -5 -10 -11
-10 -5 0 -7 5 -4 10 3 6 8 10 11 10 2 0 4 -4 4 -10z m946 -72 c4 -7 3 -8 -4
-4 -7 4 -12 2 -12 -5 0 -7 -3 -10 -6 -6 -6 5 3 27 11 27 2 0 7 -5 11 -12z
m-56 -12 c0 -2 -8 -10 -17 -17 -16 -13 -17 -12 -4 4 13 16 21 21 21 13z
m-3470 -16 c0 -5 -2 -10 -4 -10 -3 0 -8 5 -11 10 -3 6 -1 10 4 10 6 0 11 -4
11 -10z m-54 -32 c4 -7 3 -8 -5 -4 -6 4 -14 1 -17 -8 -3 -8 -13 -17 -22 -21
-11 -4 -9 2 7 19 28 30 28 30 37 14z m3779 -77 c3 -5 2 -12 -3 -15 -5 -3 -9 1
-9 9 0 17 3 19 12 6z m993 -606 c-3 -3 -9 2 -12 12 -6 14 -5 15 5 6 7 -7 10
-15 7 -18z m-763 -223 c-3 -3 -11 0 -18 7 -9 10 -8 11 6 5 10 -3 15 -9 12 -12z
m-95 -302 c0 -5 -5 -10 -11 -10 -5 0 -7 5 -4 10 3 6 8 10 11 10 2 0 4 -4 4
-10z m190 -54 c0 -3 -4 -8 -10 -11 -5 -3 -10 -1 -10 4 0 6 5 11 10 11 6 0 10
-2 10 -4z m-353 -86 c-14 -11 -28 -20 -32 -20 -10 0 38 39 49 40 5 0 -3 -9
-17 -20z m-309 -690 c-7 -10 -14 -18 -15 -16 -6 6 9 36 18 36 5 0 4 -9 -3 -20z
m-295 -201 c-8 -8 -13 -7 -18 2 -5 8 -4 10 3 5 7 -4 12 -2 12 5 0 7 3 9 7 6 4
-4 2 -12 -4 -18z m-3958 -17 c-3 -3 -11 0 -18 7 -9 10 -8 11 6 5 10 -3 15 -9
12 -12z m315 -126 c0 -3 -4 -8 -10 -11 -5 -3 -10 -1 -10 4 0 6 5 11 10 11 6 0
10 -2 10 -4z m3180 -130 c0 -3 -4 -8 -10 -11 -5 -3 -10 -1 -10 4 0 6 5 11 10
11 6 0 10 -2 10 -4z m-90 -191 c-7 -9 -15 -13 -19 -10 -3 3 1 10 9 15 21 14
24 12 10 -5z m1035 -125 c-3 -5 -2 -10 4 -10 5 0 13 5 16 10 3 6 12 10 18 10
7 0 6 -4 -3 -10 -11 -7 -11 -10 -2 -10 7 0 10 -6 7 -12 -4 -7 1 -4 9 6 15 19
16 19 16 2 0 -14 3 -16 13 -7 18 14 30 2 16 -16 -9 -10 -8 -13 1 -13 21 0 -19
-38 -44 -42 -11 -2 -20 -9 -18 -16 1 -8 -2 -11 -8 -7 -5 3 -10 0 -10 -7 0 -8
-3 -9 -8 -3 -4 6 -15 11 -25 11 -13 2 -15 -1 -7 -11 13 -16 2 -24 -34 -27 -19
-2 -22 -5 -14 -15 8 -10 7 -12 -6 -7 -19 7 -18 4 -20 76 -2 52 -1 56 16 47 14
-7 16 -6 12 5 -3 8 3 19 15 25 26 14 34 14 26 -1 -3 -7 2 -3 11 10 16 22 31
31 19 12z m-2201 -119 c3 -5 -1 -11 -9 -15 -8 -3 -17 0 -21 6 -4 7 -3 8 4 4 7
-4 12 -2 12 3 0 13 7 14 14 2z m91 -160 c-3 -2 -16 -6 -28 -8 -15 -2 -18 0 -9
5 14 9 45 12 37 3z m-1605 -16 c0 -8 -2 -15 -4 -15 -2 0 -6 7 -10 15 -3 8 -1
15 4 15 6 0 10 -7 10 -15z m460 -86 c0 -6 -4 -7 -10 -4 -5 3 -10 11 -10 16 0
6 5 7 10 4 6 -3 10 -11 10 -16z m425 -8 c-3 -6 -11 -11 -16 -11 -5 0 -4 6 3
14 14 16 24 13 13 -3z m-265 -1 c0 -5 -5 -10 -11 -10 -5 0 -7 5 -4 10 3 6 8
10 11 10 2 0 4 -4 4 -10z m340 4 c0 -8 -19 -13 -24 -6 -3 5 1 9 9 9 8 0 15 -2
15 -3z m-1404 -781 c-10 -10 -19 5 -10 18 6 11 8 11 12 0 2 -7 1 -15 -2 -18z
m3794 -457 c0 -3 -4 -8 -10 -11 -5 -3 -10 -1 -10 4 0 6 5 11 10 11 6 0 10 -2
10 -4z m-3579 -149 c-10 -9 -11 -8 -5 6 3 10 9 15 12 12 3 -3 0 -11 -7 -18z
m-81 -32 c-7 -9 -15 -13 -17 -11 -7 7 7 26 19 26 6 0 6 -6 -2 -15z m3353 -100
c-3 -9 -8 -14 -10 -11 -3 3 -2 9 2 15 9 16 15 13 8 -4z m-2563 -155 c0 -5 -4
-10 -10 -10 -5 0 -10 5 -10 10 0 6 5 10 10 10 6 0 10 -4 10 -10z m2181 -193
c-10 -9 -11 -8 -5 6 3 10 9 15 12 12 3 -3 0 -11 -7 -18z m230 0 c-10 -9 -11
-8 -5 6 3 10 9 15 12 12 3 -3 0 -11 -7 -18z m-57 -15 c3 -5 -1 -9 -9 -9 -8 0
-12 4 -9 9 3 4 7 8 9 8 2 0 6 -4 9 -8z"/>
<path d="M6980 6170 c-8 -5 -12 -12 -9 -15 4 -3 12 1 19 10 14 17 11 19 -10 5z"/>
<path d="M4356 6025 c-3 -8 -1 -15 4 -15 6 0 10 7 10 15 0 8 -2 15 -4 15 -2 0
-6 -7 -10 -15z"/>
<path d="M3150 6019 c0 -5 5 -7 10 -4 6 3 10 8 10 11 0 2 -4 4 -10 4 -5 0 -10
-5 -10 -11z"/>
<path d="M3790 6019 c0 -5 5 -7 10 -4 6 3 10 8 10 11 0 2 -4 4 -10 4 -5 0 -10
-5 -10 -11z"/>
<path d="M4630 6020 c0 -5 5 -10 11 -10 5 0 7 5 4 10 -3 6 -8 10 -11 10 -2 0
-4 -4 -4 -10z"/>
<path d="M4765 6020 c-4 -6 -11 -7 -17 -4 -7 4 -8 2 -4 -5 6 -9 11 -9 22 0 14
11 18 19 10 19 -3 0 -8 -5 -11 -10z"/>
<path d="M6240 5911 c0 -6 4 -13 10 -16 6 -3 7 1 4 9 -7 18 -14 21 -14 7z"/>
<path d="M5380 5885 c0 -2 6 -8 13 -14 10 -8 14 -7 14 2 0 8 -6 14 -14 14 -7
0 -13 -1 -13 -2z"/>
<path d="M5428 5873 c7 -3 16 -2 19 1 4 3 -2 6 -13 5 -11 0 -14 -3 -6 -6z"/>
<path d="M5825 5740 c3 -5 11 -10 16 -10 6 0 7 5 4 10 -3 6 -11 10 -16 10 -6
0 -7 -4 -4 -10z"/>
<path d="M1516 5681 c9 -9 34 -9 34 -1 0 5 -9 8 -20 7 -10 -1 -17 -3 -14 -6z"/>
<path d="M1654 5676 c-4 -10 -15 -11 -47 -5 -31 5 -46 4 -58 -7 -13 -12 -18
-11 -36 1 -20 14 -21 13 -18 -10 1 -14 -1 -25 -5 -25 -4 0 -11 -7 -14 -16 -5
-13 -3 -14 6 -6 11 8 13 -28 13 -184 0 -107 -3 -194 -6 -194 -4 0 -10 -7 -13
-16 -5 -13 -3 -14 6 -6 10 8 13 3 13 -24 0 -19 -3 -34 -6 -34 -4 0 -10 -7 -13
-16 -5 -13 -3 -14 6 -6 10 8 13 -20 13 -141 0 -119 -3 -154 -14 -163 -11 -9
-12 -12 -1 -19 9 -6 11 -4 5 6 -7 12 -6 12 6 0 11 -10 11 -15 2 -18 -7 -3 -13
-9 -13 -14 0 -6 4 -8 8 -5 12 7 9 -68 -3 -76 -6 -5 -4 -8 4 -8 11 0 10 -4 -5
-16 -10 -8 -14 -13 -7 -10 6 4 14 2 18 -4 3 -5 1 -10 -6 -10 -7 0 -8 -4 -2
-12 11 -16 11 -68 -1 -87 -6 -10 -5 -12 2 -7 7 4 12 2 12 -3 0 -6 -5 -11 -11
-11 -5 0 -7 -5 -3 -12 4 -6 8 -34 10 -62 3 -70 2 -69 19 -63 8 4 17 2 20 -3 3
-6 15 -6 30 0 16 6 27 6 31 -1 3 -6 12 -3 21 8 14 17 14 16 9 -7 l-5 -25 20
25 c11 14 19 21 18 15 -3 -24 2 -27 17 -9 8 10 13 14 10 7 -5 -8 6 -12 33 -11
31 0 42 5 46 19 4 11 10 17 14 15 6 -4 7 28 1 44 -6 16 -5 138 2 152 4 9 4 19
0 22 -9 5 -8 89 2 104 3 6 2 13 -3 17 -7 4 -7 15 -1 30 7 17 6 25 -1 25 -7 0
-6 6 2 17 12 15 12 16 -1 8 -12 -6 -13 -5 -3 5 10 11 9 16 -5 27 -9 8 -12 12
-5 8 9 -4 12 8 9 44 -1 28 1 56 5 63 4 7 3 15 -3 19 -7 4 -7 13 1 27 7 14 8
23 1 27 -5 3 -10 11 -10 16 0 6 4 7 10 4 7 -4 7 2 0 19 -6 16 -6 27 0 31 6 4
7 14 2 23 -7 16 -8 32 -2 57 6 27 4 51 -5 57 -6 5 -4 8 5 8 12 0 13 2 1 9 -8
5 -10 14 -5 22 11 18 13 49 3 49 -4 0 -5 10 -2 23 5 21 5 40 -1 82 -1 11 2 26
7 33 6 8 5 12 -4 12 -11 0 -11 2 1 10 8 5 10 10 4 10 -11 0 -11 106 0 117 11
11 -15 32 -31 26 -12 -5 -14 -2 -9 8 4 8 1 6 -7 -3 -13 -16 -15 -16 -32 0 -10
9 -15 11 -11 5 5 -9 0 -13 -14 -13 -12 0 -18 5 -15 10 3 6 4 10 0 10 -3 0 -8
-6 -11 -14z"/>
<path d="M1475 5531 c-3 -5 -2 -12 3 -15 5 -3 9 1 9 9 0 17 -3 19 -12 6z"/>
<path d="M5905 5191 c-3 -5 -2 -12 3 -15 5 -3 9 1 9 9 0 17 -3 19 -12 6z"/>
<path d="M5720 5120 c-9 -6 -10 -10 -3 -10 6 0 15 5 18 10 8 12 4 12 -15 0z"/>
<path d="M1476 5087 c3 -10 9 -15 12 -12 3 3 0 11 -7 18 -10 9 -11 8 -5 -6z"/>
<path d="M1476 5047 c3 -10 9 -15 12 -12 3 3 0 11 -7 18 -10 9 -11 8 -5 -6z"/>
<path d="M6565 5030 c-3 -6 1 -7 9 -4 18 7 21 14 7 14 -6 0 -13 -4 -16 -10z"/>
<path d="M5956 4982 c-3 -5 1 -9 9 -9 8 0 12 4 9 9 -3 4 -7 8 -9 8 -2 0 -6 -4
-9 -8z"/>
<path d="M1475 4940 c-3 -5 -1 -10 4 -10 6 0 11 5 11 10 0 6 -2 10 -4 10 -3 0
-8 -4 -11 -10z"/>
<path d="M7300 4899 c0 -5 5 -7 10 -4 6 3 10 8 10 11 0 2 -4 4 -10 4 -5 0 -10
-5 -10 -11z"/>
<path d="M1470 4861 c0 -6 4 -13 10 -16 6 -3 7 1 4 9 -7 18 -14 21 -14 7z"/>
<path d="M6003 4715 c0 -8 4 -12 9 -9 5 3 6 10 3 15 -9 13 -12 11 -12 -6z"/>
<path d="M1470 4581 c0 -6 4 -12 8 -15 5 -3 9 1 9 9 0 8 -4 15 -9 15 -4 0 -8
-4 -8 -9z"/>
<path d="M1770 4399 c0 -5 5 -7 10 -4 6 3 10 8 10 11 0 2 -4 4 -10 4 -5 0 -10
-5 -10 -11z"/>
<path d="M5440 3805 c-7 -9 -8 -15 -2 -15 5 0 12 7 16 15 3 8 4 15 2 15 -2 0
-9 -7 -16 -15z"/>
<path d="M5335 3730 c-3 -5 -1 -10 4 -10 6 0 11 5 11 10 0 6 -2 10 -4 10 -3 0
-8 -4 -11 -10z"/>
<path d="M5265 3670 c-3 -6 1 -7 9 -4 18 7 21 14 7 14 -6 0 -13 -4 -16 -10z"/>
<path d="M6388 3633 c-10 -3 -18 -9 -18 -14 0 -5 -7 -9 -16 -9 -9 0 -12 -5 -8
-12 5 -8 0 -7 -11 2 -14 11 -17 11 -11 1 7 -10 3 -12 -15 -6 -19 5 -21 4 -9
-4 13 -10 8 -15 -12 -12 -4 0 -4 -7 -1 -17 6 -15 4 -15 -9 -4 -14 11 -16 10
-11 -9 4 -12 2 -20 -3 -17 -5 3 -15 0 -22 -8 -10 -11 -10 -14 0 -14 8 0 4 -8
-8 -18 -15 -12 -20 -27 -18 -51 1 -22 -1 -29 -7 -20 -7 12 -9 11 -9 -1 0 -12
-2 -13 -9 -1 -5 7 -15 10 -22 7 -8 -4 -5 0 5 8 19 16 19 16 -2 16 -12 0 -22 4
-22 9 0 5 -7 12 -16 15 -14 5 -15 4 -4 -9 10 -13 9 -15 -9 -15 -15 0 -20 -4
-15 -12 4 -7 4 -10 -1 -6 -4 4 -15 2 -23 -5 -13 -10 -14 -9 -7 2 6 10 4 12 -4
7 -7 -5 -10 -14 -7 -22 5 -12 2 -12 -15 -3 -15 8 -19 8 -15 0 8 -12 -40 -35
-55 -26 -5 4 -6 -1 -3 -10 4 -10 2 -15 -6 -13 -7 2 -14 -7 -15 -20 -1 -16 2
-21 12 -18 11 5 13 0 7 -16 -5 -16 -3 -20 9 -15 11 4 13 0 10 -14 -3 -11 0
-19 6 -19 7 0 9 -5 6 -10 -4 -6 -1 -9 6 -8 7 2 15 -6 17 -17 2 -11 9 -23 14
-26 6 -4 11 -18 11 -32 2 -19 5 -23 15 -15 9 8 11 7 6 -7 -6 -14 -4 -16 6 -10
8 5 11 4 6 -3 -3 -6 -1 -14 5 -17 5 -4 8 -14 5 -22 -4 -11 -2 -13 9 -10 8 4
17 2 20 -3 4 -6 1 -10 -4 -10 -6 0 -11 -5 -11 -11 0 -5 5 -7 10 -4 6 3 10 1
10 -5 0 -7 8 -19 18 -28 10 -10 12 -13 5 -8 -21 14 -15 -1 12 -28 16 -16 20
-26 12 -29 -7 -3 -5 -6 4 -6 9 -1 20 -8 23 -17 4 -10 2 -13 -7 -8 -6 4 -1 -3
11 -16 19 -18 21 -24 10 -32 -9 -6 -8 -8 7 -6 15 2 20 -2 19 -20 -1 -19 1 -20
14 -10 12 10 14 10 8 1 -4 -8 -2 -13 6 -13 8 0 9 -3 3 -8 -5 -4 -11 -13 -13
-20 -2 -10 2 -10 18 -2 16 8 18 8 14 -4 -3 -8 0 -23 6 -33 11 -17 11 -17 6 0
-5 15 -2 16 14 7 16 -9 18 -8 14 5 -6 13 10 20 38 16 4 0 21 14 39 32 18 17
40 32 48 32 9 1 15 6 14 13 -2 7 3 12 10 12 7 0 13 11 13 24 0 14 -4 22 -8 20
-5 -3 -5 -11 -2 -17 4 -7 3 -8 -2 -4 -5 5 -10 13 -10 18 -1 5 -2 14 -3 20 0 5
-7 7 -13 3 -9 -5 -9 -2 1 9 12 15 11 17 -2 17 -9 0 -19 5 -23 12 -4 6 -3 8 2
5 5 -3 10 3 10 13 0 15 -3 17 -15 7 -12 -10 -14 -9 -8 6 3 9 2 17 -4 17 -6 0
-7 5 -4 10 3 6 -1 10 -9 10 -9 0 -16 5 -16 11 0 5 6 7 13 4 6 -4 2 2 -10 13
-12 11 -19 22 -16 26 4 3 1 6 -6 6 -7 0 -9 5 -6 10 3 6 -1 10 -11 10 -13 0
-14 3 -5 14 9 11 9 16 0 22 -8 4 -9 3 -5 -4 4 -7 2 -12 -3 -12 -6 0 -11 11
-11 24 0 13 -4 26 -10 28 -5 2 -11 12 -13 23 -1 11 -7 26 -11 34 -6 10 -5 12
2 7 8 -5 11 3 8 23 -2 23 1 31 13 31 14 0 14 2 1 10 -13 8 -12 10 4 10 13 0
17 5 13 20 -3 11 -1 18 3 15 5 -3 11 -1 15 5 3 5 18 10 33 10 19 0 23 3 14 9
-10 6 -9 10 7 14 12 3 19 1 15 -4 -3 -5 0 -9 5 -9 6 0 11 5 11 11 0 8 4 8 13
0 10 -8 19 -7 33 5 10 8 13 13 7 9 -7 -3 -13 -1 -13 4 0 6 4 11 8 11 13 0 6
98 -9 116 -12 16 -12 17 1 12 11 -4 16 0 16 13 0 14 -3 16 -15 6 -12 -10 -13
-9 -2 10 10 19 9 22 -4 17 -11 -4 -13 -2 -9 9 7 19 -17 17 -42 -3 -10 -8 -15
-10 -11 -3 9 14 -2 21 -25 16z m21 -806 c-2 -1 -11 -8 -21 -15 -12 -10 -18
-10 -24 -1 -4 7 -3 9 4 5 6 -3 13 -2 17 4 3 5 11 10 17 10 6 0 9 -1 7 -3z"/>
<path d="M5220 3590 c-9 -6 -10 -10 -3 -10 6 0 15 5 18 10 8 12 4 12 -15 0z"/>
<path d="M5025 3510 c-3 -6 1 -7 9 -4 18 7 21 14 7 14 -6 0 -13 -4 -16 -10z"/>
<path d="M4910 3440 c0 -5 5 -10 11 -10 5 0 7 5 4 10 -3 6 -8 10 -11 10 -2 0
-4 -4 -4 -10z"/>
<path d="M1682 3414 c10 -10 20 -16 22 -13 3 3 -5 11 -17 18 -21 13 -21 12 -5
-5z"/>
<path d="M3859 3004 c-8 -9 -5 -11 11 -7 25 7 35 20 14 20 -8 0 -19 -6 -25
-13z"/>
<path d="M5950 2839 c0 -5 5 -7 10 -4 6 3 10 8 10 11 0 2 -4 4 -10 4 -5 0 -10
-5 -10 -11z"/>
<path d="M6435 2840 c-3 -5 -1 -10 4 -10 6 0 11 5 11 10 0 6 -2 10 -4 10 -3 0
-8 -4 -11 -10z"/>
<path d="M5675 2760 c-3 -5 -1 -10 4 -10 6 0 11 5 11 10 0 6 -2 10 -4 10 -3 0
-8 -4 -11 -10z"/>
<path d="M1395 1860 c-3 -5 -1 -10 4 -10 6 0 11 5 11 10 0 6 -2 10 -4 10 -3 0
-8 -4 -11 -10z"/>
<path d="M3457 1333 c-11 -11 -8 -20 7 -20 8 0 12 6 9 14 -6 15 -7 15 -16 6z"/>
<path d="M3871 1304 c0 -11 3 -14 6 -6 3 7 2 16 -1 19 -3 4 -6 -2 -5 -13z"/>
<path d="M2996 1292 c-3 -5 1 -9 9 -9 8 0 12 4 9 9 -3 4 -7 8 -9 8 -2 0 -6 -4
-9 -8z"/>
<path d="M4460 1139 c0 -5 5 -7 10 -4 6 3 10 8 10 11 0 2 -4 4 -10 4 -5 0 -10
-5 -10 -11z"/>
<path d="M3216 922 c-3 -5 1 -9 9 -9 8 0 12 4 9 9 -3 4 -7 8 -9 8 -2 0 -6 -4
-9 -8z"/>
<path d="M4985 921 c-3 -5 -2 -12 3 -15 5 -3 9 1 9 9 0 17 -3 19 -12 6z"/>
<path d="M2031 883 c0 -11 3 -13 6 -5 2 6 10 9 15 6 7 -4 8 -2 4 4 -11 18 -26
14 -25 -5z"/>
<path d="M1705 789 c-4 -6 -5 -12 -2 -15 2 -3 7 2 10 11 7 17 1 20 -8 4z"/>
<path d="M2590 771 c0 -6 4 -13 10 -16 6 -3 7 1 4 9 -7 18 -14 21 -14 7z"/>
</g>
</svg>
